<?xml version="1.0" encoding="UTF-8" standalone="no"?>
<!DOCTYPE svg PUBLIC "-//W3C//DTD SVG 1.1//EN"
 "http://www.w3.org/Graphics/SVG/1.1/DTD/svg11.dtd">
<!-- Generated by graphviz version 2.44.1 (20200629.0846)
 -->
<!-- Pages: 1 -->
<svg width="585pt" height="296pt"
 viewBox="0.00 0.00 585.00 296.00" xmlns="http://www.w3.org/2000/svg" xmlns:xlink="http://www.w3.org/1999/xlink">
<g id="graph0" class="graph" transform="scale(1 1) rotate(0) translate(4 292)">
<polygon fill="white" stroke="transparent" points="-4,4 -4,-292 581,-292 581,4 -4,4"/>
<!-- [root] ibm_is_instance.testacc_instance1 -->
<g id="node_0" class="node">
<title>[root] ibm_is_instance.testacc_instance1</title>
<polygon fill="none" stroke="black" points="0.5,-201 0.5,-216 101.5,-216 101.5,-201 0.5,-201"/>
<text text-anchor="start" x="17" y="-206.6" font-family="courier new" font-size="8.00">ibm_is_instance</text>
<polygon fill="none" stroke="black" points="0.5,-186 0.5,-201 101.5,-201 101.5,-186 0.5,-186"/>
<text text-anchor="start" x="12.5" y="-191.6" font-family="courier new" font-size="8.00">testacc_instance1</text>
<polygon fill="none" stroke="black" points="0.5,-171 0.5,-186 47.5,-186 47.5,-171 0.5,-171"/>
<text text-anchor="start" x="10" y="-176.6" font-family="courier new" font-size="8.00">config</text>
<polygon fill="none" stroke="black" points="47.5,-171 47.5,-186 65.5,-186 65.5,-171 47.5,-171"/>
<text text-anchor="start" x="54" y="-176.6" font-family="courier new" font-size="8.00">+</text>
<polygon fill="none" stroke="black" points="65.5,-171 65.5,-186 101.5,-186 101.5,-171 65.5,-171"/>
<text text-anchor="start" x="72" y="-176.6" font-family="courier new" font-size="8.00">apply</text>
<polygon fill="none" stroke="black" points="0.5,-156 0.5,-171 101.5,-171 101.5,-156 0.5,-156"/>
<text text-anchor="start" x="3.5" y="-161.6" font-family="courier new" font-size="8.00">controls &#160;&#160;&#160;&#160;&#160;&#160;&#160;&#160;&#160;&#160;&#160;&#160;</text>
<polygon fill="none" stroke="black" points="0.5,-141 0.5,-156 101.5,-156 101.5,-141 0.5,-141"/>
<text text-anchor="start" x="5.5" y="-146.6" font-family="courier new" font-size="8.00">74.04 USD &#160;&#160;&#160;&#160;&#160;&#160;&#160;&#160;&#160;&#160;</text>
<polygon fill="none" stroke="black" points="0.5,-126 0.5,-141 101.5,-141 101.5,-126 0.5,-126"/>
<text text-anchor="start" x="5.5" y="-131.6" font-family="courier new" font-size="8.00"> &#160;&#160;&#160;&#160;&#160;&#160;&#160;&#160;&#160;&#160;&#160;&#160;&#160;&#160;&#160;&#160;&#160;&#160;&#160;</text>
</g>
<!-- [root] ibm_is_lb.lb -->
<g id="node_1" class="node">
<title>[root] ibm_is_lb.lb</title>
<polygon fill="none" stroke="black" points="119.5,-201 119.5,-216 220.5,-216 220.5,-201 119.5,-201"/>
<text text-anchor="start" x="149.5" y="-206.6" font-family="courier new" font-size="8.00">ibm_is_lb</text>
<polygon fill="none" stroke="black" points="119.5,-186 119.5,-201 220.5,-201 220.5,-186 119.5,-186"/>
<text text-anchor="start" x="165" y="-191.6" font-family="courier new" font-size="8.00">lb</text>
<polygon fill="none" stroke="black" points="119.5,-171 119.5,-186 166.5,-186 166.5,-171 119.5,-171"/>
<text text-anchor="start" x="129" y="-176.6" font-family="courier new" font-size="8.00">config</text>
<polygon fill="none" stroke="black" points="166.5,-171 166.5,-186 184.5,-186 184.5,-171 166.5,-171"/>
<text text-anchor="start" x="173" y="-176.6" font-family="courier new" font-size="8.00">+</text>
<polygon fill="none" stroke="black" points="184.5,-171 184.5,-186 220.5,-186 220.5,-171 184.5,-171"/>
<text text-anchor="start" x="191" y="-176.6" font-family="courier new" font-size="8.00">apply</text>
<polygon fill="none" stroke="black" points="119.5,-156 119.5,-171 220.5,-171 220.5,-156 119.5,-156"/>
<text text-anchor="start" x="122.5" y="-161.6" font-family="courier new" font-size="8.00">controls &#160;&#160;&#160;&#160;&#160;&#160;&#160;&#160;&#160;&#160;&#160;&#160;</text>
<polygon fill="none" stroke="black" points="119.5,-141 119.5,-156 220.5,-156 220.5,-141 119.5,-141"/>
<text text-anchor="start" x="124.5" y="-146.6" font-family="courier new" font-size="8.00">0 USD &#160;&#160;&#160;&#160;&#160;&#160;&#160;&#160;&#160;&#160;&#160;&#160;&#160;&#160;</text>
<polygon fill="none" stroke="black" points="119.5,-126 119.5,-141 220.5,-141 220.5,-126 119.5,-126"/>
<text text-anchor="start" x="124.5" y="-131.6" font-family="courier new" font-size="8.00"> &#160;&#160;&#160;&#160;&#160;&#160;&#160;&#160;&#160;&#160;&#160;&#160;&#160;&#160;&#160;&#160;&#160;&#160;&#160;</text>
</g>
<!-- [root] ibm_is_subnet.testacc_subnet -->
<g id="node_2" class="node">
<title>[root] ibm_is_subnet.testacc_subnet</title>
<polygon fill="none" stroke="black" points="238.5,-201 238.5,-216 339.5,-216 339.5,-201 238.5,-201"/>
<text text-anchor="start" x="259.5" y="-206.6" font-family="courier new" font-size="8.00">ibm_is_subnet</text>
<polygon fill="none" stroke="black" points="238.5,-186 238.5,-201 339.5,-201 339.5,-186 238.5,-186"/>
<text text-anchor="start" x="257" y="-191.6" font-family="courier new" font-size="8.00">testacc_subnet</text>
<polygon fill="none" stroke="black" points="238.5,-171 238.5,-186 285.5,-186 285.5,-171 238.5,-171"/>
<text text-anchor="start" x="248" y="-176.6" font-family="courier new" font-size="8.00">config</text>
<polygon fill="none" stroke="black" points="285.5,-171 285.5,-186 303.5,-186 303.5,-171 285.5,-171"/>
<text text-anchor="start" x="292" y="-176.6" font-family="courier new" font-size="8.00">+</text>
<polygon fill="none" stroke="black" points="303.5,-171 303.5,-186 339.5,-186 339.5,-171 303.5,-171"/>
<text text-anchor="start" x="310" y="-176.6" font-family="courier new" font-size="8.00">apply</text>
<polygon fill="none" stroke="black" points="238.5,-156 238.5,-171 339.5,-171 339.5,-156 238.5,-156"/>
<text text-anchor="start" x="241.5" y="-161.6" font-family="courier new" font-size="8.00">controls &#160;&#160;&#160;&#160;&#160;&#160;&#160;&#160;&#160;&#160;&#160;&#160;</text>
<polygon fill="none" stroke="black" points="238.5,-141 238.5,-156 339.5,-156 339.5,-141 238.5,-141"/>
<text text-anchor="start" x="243.5" y="-146.6" font-family="courier new" font-size="8.00">N/A &#160;&#160;&#160;&#160;&#160;&#160;&#160;&#160;&#160;&#160;&#160;&#160;&#160;&#160;&#160;&#160;</text>
<polygon fill="none" stroke="black" points="238.5,-126 238.5,-141 339.5,-141 339.5,-126 238.5,-126"/>
<text text-anchor="start" x="243.5" y="-131.6" font-family="courier new" font-size="8.00"> &#160;&#160;&#160;&#160;&#160;&#160;&#160;&#160;&#160;&#160;&#160;&#160;&#160;&#160;&#160;&#160;&#160;&#160;&#160;</text>
</g>
<!-- [root] ibm_is_vpc.testacc_vpc -->
<g id="node_4" class="node">
<title>[root] ibm_is_vpc.testacc_vpc</title>
<polygon fill="none" stroke="black" points="238.5,-75 238.5,-90 339.5,-90 339.5,-75 238.5,-75"/>
<text text-anchor="start" x="266" y="-80.6" font-family="courier new" font-size="8.00">ibm_is_vpc</text>
<polygon fill="none" stroke="black" points="238.5,-60 238.5,-75 339.5,-75 339.5,-60 238.5,-60"/>
<text text-anchor="start" x="264" y="-65.6" font-family="courier new" font-size="8.00">testacc_vpc</text>
<polygon fill="none" stroke="black" points="238.5,-45 238.5,-60 285.5,-60 285.5,-45 238.5,-45"/>
<text text-anchor="start" x="248" y="-50.6" font-family="courier new" font-size="8.00">config</text>
<polygon fill="none" stroke="black" points="285.5,-45 285.5,-60 303.5,-60 303.5,-45 285.5,-45"/>
<text text-anchor="start" x="292" y="-50.6" font-family="courier new" font-size="8.00">+</text>
<polygon fill="none" stroke="black" points="303.5,-45 303.5,-60 339.5,-60 339.5,-45 303.5,-45"/>
<text text-anchor="start" x="310" y="-50.6" font-family="courier new" font-size="8.00">apply</text>
<polygon fill="none" stroke="black" points="238.5,-30 238.5,-45 339.5,-45 339.5,-30 238.5,-30"/>
<text text-anchor="start" x="241.5" y="-35.6" font-family="courier new" font-size="8.00">controls &#160;&#160;&#160;&#160;&#160;&#160;&#160;&#160;&#160;&#160;&#160;&#160;</text>
<polygon fill="none" stroke="black" points="238.5,-15 238.5,-30 339.5,-30 339.5,-15 238.5,-15"/>
<text text-anchor="start" x="243.5" y="-20.6" font-family="courier new" font-size="8.00">0 USD &#160;&#160;&#160;&#160;&#160;&#160;&#160;&#160;&#160;&#160;&#160;&#160;&#160;&#160;</text>
<polygon fill="none" stroke="black" points="238.5,0 238.5,-15 339.5,-15 339.5,0 238.5,0"/>
<text text-anchor="start" x="243.5" y="-5.6" font-family="courier new" font-size="8.00"> &#160;&#160;&#160;&#160;&#160;&#160;&#160;&#160;&#160;&#160;&#160;&#160;&#160;&#160;&#160;&#160;&#160;&#160;&#160;</text>
</g>
<!-- [root] ibm_is_subnet.testacc_subnet&#45;&gt;[root] ibm_is_vpc.testacc_vpc -->
<g id="edge_0" class="edge">
<title>[root] ibm_is_subnet.testacc_subnet&#45;&gt;[root] ibm_is_vpc.testacc_vpc</title>
<path fill="none" stroke="black" d="M288.5,-125.93C288.5,-117.72 288.5,-109.04 288.5,-100.56"/>
<polygon fill="black" stroke="black" points="292,-100.34 288.5,-90.34 285,-100.34 292,-100.34"/>
</g>
<!-- [root] ibm_is_volume.testacc_volume -->
<g id="node_3" class="node">
<title>[root] ibm_is_volume.testacc_volume</title>
<polygon fill="none" stroke="black" points="357.5,-201 357.5,-216 458.5,-216 458.5,-201 357.5,-201"/>
<text text-anchor="start" x="378.5" y="-206.6" font-family="courier new" font-size="8.00">ibm_is_volume</text>
<polygon fill="none" stroke="black" points="357.5,-186 357.5,-201 458.5,-201 458.5,-186 357.5,-186"/>
<text text-anchor="start" x="376" y="-191.6" font-family="courier new" font-size="8.00">testacc_volume</text>
<polygon fill="none" stroke="black" points="357.5,-171 357.5,-186 404.5,-186 404.5,-171 357.5,-171"/>
<text text-anchor="start" x="367" y="-176.6" font-family="courier new" font-size="8.00">config</text>
<polygon fill="none" stroke="black" points="404.5,-171 404.5,-186 422.5,-186 422.5,-171 404.5,-171"/>
<text text-anchor="start" x="411" y="-176.6" font-family="courier new" font-size="8.00">+</text>
<polygon fill="none" stroke="black" points="422.5,-171 422.5,-186 458.5,-186 458.5,-171 422.5,-171"/>
<text text-anchor="start" x="429" y="-176.6" font-family="courier new" font-size="8.00">apply</text>
<polygon fill="none" stroke="black" points="357.5,-156 357.5,-171 458.5,-171 458.5,-156 357.5,-156"/>
<text text-anchor="start" x="360.5" y="-161.6" font-family="courier new" font-size="8.00">controls &#160;&#160;&#160;&#160;&#160;&#160;&#160;&#160;&#160;&#160;&#160;&#160;</text>
<polygon fill="none" stroke="black" points="357.5,-141 357.5,-156 458.5,-156 458.5,-141 357.5,-141"/>
<text text-anchor="start" x="362.5" y="-146.6" font-family="courier new" font-size="8.00">0 USD &#160;&#160;&#160;&#160;&#160;&#160;&#160;&#160;&#160;&#160;&#160;&#160;&#160;&#160;</text>
<polygon fill="none" stroke="black" points="357.5,-126 357.5,-141 458.5,-141 458.5,-126 357.5,-126"/>
<text text-anchor="start" x="362.5" y="-131.6" font-family="courier new" font-size="8.00"> &#160;&#160;&#160;&#160;&#160;&#160;&#160;&#160;&#160;&#160;&#160;&#160;&#160;&#160;&#160;&#160;&#160;&#160;&#160;</text>
</g>
<!-- [root] ibm_is_vpn_gateway.testacc_vpn_gateway -->
<g id="node_5" class="node">
<title>[root] ibm_is_vpn_gateway.testacc_vpn_gateway</title>
<polygon fill="none" stroke="black" points="476.5,-201 476.5,-216 577.5,-216 577.5,-201 476.5,-201"/>
<text text-anchor="start" x="486" y="-206.6" font-family="courier new" font-size="8.00">ibm_is_vpn_gateway</text>
<polygon fill="none" stroke="black" points="476.5,-186 476.5,-201 577.5,-201 577.5,-186 476.5,-186"/>
<text text-anchor="start" x="484" y="-191.6" font-family="courier new" font-size="8.00">testacc_vpn_gateway</text>
<polygon fill="none" stroke="black" points="476.5,-171 476.5,-186 523.5,-186 523.5,-171 476.5,-171"/>
<text text-anchor="start" x="486" y="-176.6" font-family="courier new" font-size="8.00">config</text>
<polygon fill="none" stroke="black" points="523.5,-171 523.5,-186 541.5,-186 541.5,-171 523.5,-171"/>
<text text-anchor="start" x="530" y="-176.6" font-family="courier new" font-size="8.00">+</text>
<polygon fill="none" stroke="black" points="541.5,-171 541.5,-186 577.5,-186 577.5,-171 541.5,-171"/>
<text text-anchor="start" x="548" y="-176.6" font-family="courier new" font-size="8.00">apply</text>
<polygon fill="none" stroke="black" points="476.5,-156 476.5,-171 577.5,-171 577.5,-156 476.5,-156"/>
<text text-anchor="start" x="479.5" y="-161.6" font-family="courier new" font-size="8.00">controls &#160;&#160;&#160;&#160;&#160;&#160;&#160;&#160;&#160;&#160;&#160;&#160;</text>
<polygon fill="none" stroke="black" points="476.5,-141 476.5,-156 577.5,-156 577.5,-141 476.5,-141"/>
<text text-anchor="start" x="481.5" y="-146.6" font-family="courier new" font-size="8.00">1 USD &#160;&#160;&#160;&#160;&#160;&#160;&#160;&#160;&#160;&#160;&#160;&#160;&#160;&#160;</text>
<polygon fill="none" stroke="black" points="476.5,-126 476.5,-141 577.5,-141 577.5,-126 476.5,-126"/>
<text text-anchor="start" x="481.5" y="-131.6" font-family="courier new" font-size="8.00"> &#160;&#160;&#160;&#160;&#160;&#160;&#160;&#160;&#160;&#160;&#160;&#160;&#160;&#160;&#160;&#160;&#160;&#160;&#160;</text>
</g>
<!-- [root] root -->
<g id="node_6" class="node">
<title>[root] root</title>
<polygon fill="none" stroke="black" points="260.5,-270 260.5,-285 316.5,-285 316.5,-270 260.5,-270"/>
<text text-anchor="start" x="263.5" y="-275.6" font-family="courier new" font-size="8.00">[root] root</text>
<polygon fill="none" stroke="black" points="260.5,-255 260.5,-270 316.5,-270 316.5,-255 260.5,-255"/>
<text text-anchor="start" x="265.5" y="-260.6" font-family="courier new" font-size="8.00">150.07 USD</text>
</g>
<!-- [root] root&#45;&gt;[root] ibm_is_instance.testacc_instance1 -->
<g id="edge_1" class="edge">
<title>[root] root&#45;&gt;[root] ibm_is_instance.testacc_instance1</title>
<path fill="none" stroke="black" d="M260.25,-263.73C224.18,-256.3 160.46,-240.82 110.5,-216 110.4,-215.95 110.3,-215.9 110.21,-215.85"/>
<polygon fill="black" stroke="black" points="111.6,-212.62 101.14,-210.91 108.24,-218.77 111.6,-212.62"/>
</g>
<!-- [root] root&#45;&gt;[root] ibm_is_lb.lb -->
<g id="edge_2" class="edge">
<title>[root] root&#45;&gt;[root] ibm_is_lb.lb</title>
<path fill="none" stroke="black" d="M267.5,-251.88C256.41,-242.84 242.19,-231.25 228.04,-219.72"/>
<polygon fill="black" stroke="black" points="230.18,-216.94 220.21,-213.34 225.75,-222.37 230.18,-216.94"/>
</g>
<!-- [root] root&#45;&gt;[root] ibm_is_subnet.testacc_subnet -->
<g id="edge_3" class="edge">
<title>[root] root&#45;&gt;[root] ibm_is_subnet.testacc_subnet</title>
<path fill="none" stroke="black" d="M288.5,-251.66C288.5,-244.37 288.5,-235.47 288.5,-226.28"/>
<polygon fill="black" stroke="black" points="292,-226.26 288.5,-216.26 285,-226.26 292,-226.26"/>
</g>
<!-- [root] root&#45;&gt;[root] ibm_is_volume.testacc_volume -->
<g id="edge_4" class="edge">
<title>[root] root&#45;&gt;[root] ibm_is_volume.testacc_volume</title>
<path fill="none" stroke="black" d="M309.5,-251.88C320.59,-242.84 334.81,-231.25 348.96,-219.72"/>
<polygon fill="black" stroke="black" points="351.25,-222.37 356.79,-213.34 346.82,-216.94 351.25,-222.37"/>
</g>
<!-- [root] root&#45;&gt;[root] ibm_is_vpn_gateway.testacc_vpn_gateway -->
<g id="edge_5" class="edge">
<title>[root] root&#45;&gt;[root] ibm_is_vpn_gateway.testacc_vpn_gateway</title>
<path fill="none" stroke="black" d="M316.62,-263.88C350.96,-256.96 410.51,-242.78 466.42,-216.1"/>
<polygon fill="black" stroke="black" points="468.29,-219.08 475.71,-211.53 465.2,-212.8 468.29,-219.08"/>
</g>
</g>
</svg>
