<?xml version="1.0" encoding="UTF-8" standalone="no"?>
<!DOCTYPE svg PUBLIC "-//W3C//DTD SVG 1.1//EN"
 "http://www.w3.org/Graphics/SVG/1.1/DTD/svg11.dtd">
<!-- Generated by graphviz version 2.44.1 (20200629.0846)
 -->
<!-- Pages: 1 -->
<svg width="118pt" height="548pt"
 viewBox="0.00 0.00 118.00 548.00" xmlns="http://www.w3.org/2000/svg" xmlns:xlink="http://www.w3.org/1999/xlink">
<g id="graph0" class="graph" transform="scale(1 1) rotate(0) translate(4 544)">
<polygon fill="white" stroke="transparent" points="-4,4 -4,-544 114,-544 114,4 -4,4"/>
<!-- [root] ibm_cis.web_domain -->
<g id="node_0" class="node">
<title>[root] ibm_cis.web_domain</title>
<polygon fill="none" stroke="black" points="5,-201 5,-216 106,-216 106,-201 5,-201"/>
<text text-anchor="start" x="39.5" y="-206.6" font-family="courier new" font-size="8.00">ibm_cis</text>
<polygon fill="none" stroke="black" points="5,-186 5,-201 106,-201 106,-186 5,-186"/>
<text text-anchor="start" x="32.5" y="-191.6" font-family="courier new" font-size="8.00">web_domain</text>
<polygon fill="none" stroke="black" points="5,-171 5,-186 52,-186 52,-171 5,-171"/>
<text text-anchor="start" x="14.5" y="-176.6" font-family="courier new" font-size="8.00">config</text>
<polygon fill="none" stroke="black" points="52,-171 52,-186 70,-186 70,-171 52,-171"/>
<text text-anchor="start" x="58.5" y="-176.6" font-family="courier new" font-size="8.00">+</text>
<polygon fill="none" stroke="black" points="70,-171 70,-186 106,-186 106,-171 70,-171"/>
<text text-anchor="start" x="76.5" y="-176.6" font-family="courier new" font-size="8.00">apply</text>
<polygon fill="none" stroke="black" points="5,-156 5,-171 106,-171 106,-156 5,-156"/>
<text text-anchor="start" x="8" y="-161.6" font-family="courier new" font-size="8.00">controls &#160;&#160;&#160;&#160;&#160;&#160;&#160;&#160;&#160;&#160;&#160;&#160;</text>
<polygon fill="none" stroke="black" points="5,-141 5,-156 106,-156 106,-141 5,-141"/>
<text text-anchor="start" x="10" y="-146.6" font-family="courier new" font-size="8.00">N/A &#160;&#160;&#160;&#160;&#160;&#160;&#160;&#160;&#160;&#160;&#160;&#160;&#160;&#160;&#160;&#160;</text>
<polygon fill="none" stroke="black" points="5,-126 5,-141 106,-141 106,-126 5,-126"/>
<text text-anchor="start" x="10" y="-131.6" font-family="courier new" font-size="8.00"> &#160;&#160;&#160;&#160;&#160;&#160;&#160;&#160;&#160;&#160;&#160;&#160;&#160;&#160;&#160;&#160;&#160;&#160;&#160;</text>
</g>
<!-- [root] ibm_resource_group.web_group -->
<g id="node_3" class="node">
<title>[root] ibm_resource_group.web_group</title>
<polygon fill="none" stroke="black" points="5,-75 5,-90 106,-90 106,-75 5,-75"/>
<text text-anchor="start" x="14.5" y="-80.6" font-family="courier new" font-size="8.00">ibm_resource_group</text>
<polygon fill="none" stroke="black" points="5,-60 5,-75 106,-75 106,-60 5,-60"/>
<text text-anchor="start" x="35" y="-65.6" font-family="courier new" font-size="8.00">web_group</text>
<polygon fill="none" stroke="black" points="5,-45 5,-60 52,-60 52,-45 5,-45"/>
<text text-anchor="start" x="14.5" y="-50.6" font-family="courier new" font-size="8.00">config</text>
<polygon fill="none" stroke="black" points="52,-45 52,-60 70,-60 70,-45 52,-45"/>
<text text-anchor="start" x="58.5" y="-50.6" font-family="courier new" font-size="8.00">+</text>
<polygon fill="none" stroke="black" points="70,-45 70,-60 106,-60 106,-45 70,-45"/>
<text text-anchor="start" x="76.5" y="-50.6" font-family="courier new" font-size="8.00">apply</text>
<polygon fill="none" stroke="black" points="5,-30 5,-45 106,-45 106,-30 5,-30"/>
<text text-anchor="start" x="8" y="-35.6" font-family="courier new" font-size="8.00">controls &#160;&#160;&#160;&#160;&#160;&#160;&#160;&#160;&#160;&#160;&#160;&#160;</text>
<polygon fill="none" stroke="black" points="5,-15 5,-30 106,-30 106,-15 5,-15"/>
<text text-anchor="start" x="10" y="-20.6" font-family="courier new" font-size="8.00">N/A &#160;&#160;&#160;&#160;&#160;&#160;&#160;&#160;&#160;&#160;&#160;&#160;&#160;&#160;&#160;&#160;</text>
<polygon fill="none" stroke="black" points="5,0 5,-15 106,-15 106,0 5,0"/>
<text text-anchor="start" x="10" y="-5.6" font-family="courier new" font-size="8.00"> &#160;&#160;&#160;&#160;&#160;&#160;&#160;&#160;&#160;&#160;&#160;&#160;&#160;&#160;&#160;&#160;&#160;&#160;&#160;</text>
</g>
<!-- [root] ibm_cis.web_domain&#45;&gt;[root] ibm_resource_group.web_group -->
<g id="edge_0" class="edge">
<title>[root] ibm_cis.web_domain&#45;&gt;[root] ibm_resource_group.web_group</title>
<path fill="none" stroke="black" d="M55,-125.93C55,-117.72 55,-109.04 55,-100.56"/>
<polygon fill="black" stroke="black" points="58.5,-100.34 55,-90.34 51.5,-100.34 58.5,-100.34"/>
</g>
<!-- [root] ibm_cis_domain.web_domain -->
<g id="node_1" class="node">
<title>[root] ibm_cis_domain.web_domain</title>
<polygon fill="none" stroke="black" points="5,-327 5,-342 106,-342 106,-327 5,-327"/>
<text text-anchor="start" x="23.5" y="-332.6" font-family="courier new" font-size="8.00">ibm_cis_domain</text>
<polygon fill="none" stroke="black" points="5,-312 5,-327 106,-327 106,-312 5,-312"/>
<text text-anchor="start" x="32.5" y="-317.6" font-family="courier new" font-size="8.00">web_domain</text>
<polygon fill="none" stroke="black" points="5,-297 5,-312 52,-312 52,-297 5,-297"/>
<text text-anchor="start" x="14.5" y="-302.6" font-family="courier new" font-size="8.00">config</text>
<polygon fill="none" stroke="black" points="52,-297 52,-312 70,-312 70,-297 52,-297"/>
<text text-anchor="start" x="58.5" y="-302.6" font-family="courier new" font-size="8.00">+</text>
<polygon fill="none" stroke="black" points="70,-297 70,-312 106,-312 106,-297 70,-297"/>
<text text-anchor="start" x="76.5" y="-302.6" font-family="courier new" font-size="8.00">apply</text>
<polygon fill="none" stroke="black" points="5,-282 5,-297 106,-297 106,-282 5,-282"/>
<text text-anchor="start" x="8" y="-287.6" font-family="courier new" font-size="8.00">controls &#160;&#160;&#160;&#160;&#160;&#160;&#160;&#160;&#160;&#160;&#160;&#160;</text>
<polygon fill="none" stroke="black" points="5,-267 5,-282 106,-282 106,-267 5,-267"/>
<text text-anchor="start" x="10" y="-272.6" font-family="courier new" font-size="8.00">N/A &#160;&#160;&#160;&#160;&#160;&#160;&#160;&#160;&#160;&#160;&#160;&#160;&#160;&#160;&#160;&#160;</text>
<polygon fill="none" stroke="black" points="5,-252 5,-267 106,-267 106,-252 5,-252"/>
<text text-anchor="start" x="10" y="-257.6" font-family="courier new" font-size="8.00"> &#160;&#160;&#160;&#160;&#160;&#160;&#160;&#160;&#160;&#160;&#160;&#160;&#160;&#160;&#160;&#160;&#160;&#160;&#160;</text>
</g>
<!-- [root] ibm_cis_domain.web_domain&#45;&gt;[root] ibm_cis.web_domain -->
<g id="edge_1" class="edge">
<title>[root] ibm_cis_domain.web_domain&#45;&gt;[root] ibm_cis.web_domain</title>
<path fill="none" stroke="black" d="M55,-251.93C55,-243.72 55,-235.04 55,-226.56"/>
<polygon fill="black" stroke="black" points="58.5,-226.34 55,-216.34 51.5,-226.34 58.5,-226.34"/>
</g>
<!-- [root] ibm_cis_domain_settings.web_domain -->
<g id="node_2" class="node">
<title>[root] ibm_cis_domain_settings.web_domain</title>
<polygon fill="none" stroke="black" points="0,-453 0,-468 110,-468 110,-453 0,-453"/>
<text text-anchor="start" x="3" y="-458.6" font-family="courier new" font-size="8.00">ibm_cis_domain_settings</text>
<polygon fill="none" stroke="black" points="0,-438 0,-453 110,-453 110,-438 0,-438"/>
<text text-anchor="start" x="32" y="-443.6" font-family="courier new" font-size="8.00">web_domain</text>
<polygon fill="none" stroke="black" points="0,-423 0,-438 52,-438 52,-423 0,-423"/>
<text text-anchor="start" x="12" y="-428.6" font-family="courier new" font-size="8.00">config</text>
<polygon fill="none" stroke="black" points="52,-423 52,-438 72,-438 72,-423 52,-423"/>
<text text-anchor="start" x="59.5" y="-428.6" font-family="courier new" font-size="8.00">+</text>
<polygon fill="none" stroke="black" points="72,-423 72,-438 110,-438 110,-423 72,-423"/>
<text text-anchor="start" x="79.5" y="-428.6" font-family="courier new" font-size="8.00">apply</text>
<polygon fill="none" stroke="black" points="0,-408 0,-423 110,-423 110,-408 0,-408"/>
<text text-anchor="start" x="7.5" y="-413.6" font-family="courier new" font-size="8.00">controls &#160;&#160;&#160;&#160;&#160;&#160;&#160;&#160;&#160;&#160;&#160;&#160;</text>
<polygon fill="none" stroke="black" points="0,-393 0,-408 110,-408 110,-393 0,-393"/>
<text text-anchor="start" x="9.5" y="-398.6" font-family="courier new" font-size="8.00">N/A &#160;&#160;&#160;&#160;&#160;&#160;&#160;&#160;&#160;&#160;&#160;&#160;&#160;&#160;&#160;&#160;</text>
<polygon fill="none" stroke="black" points="0,-378 0,-393 110,-393 110,-378 0,-378"/>
<text text-anchor="start" x="9.5" y="-383.6" font-family="courier new" font-size="8.00"> &#160;&#160;&#160;&#160;&#160;&#160;&#160;&#160;&#160;&#160;&#160;&#160;&#160;&#160;&#160;&#160;&#160;&#160;&#160;</text>
</g>
<!-- [root] ibm_cis_domain_settings.web_domain&#45;&gt;[root] ibm_cis_domain.web_domain -->
<g id="edge_2" class="edge">
<title>[root] ibm_cis_domain_settings.web_domain&#45;&gt;[root] ibm_cis_domain.web_domain</title>
<path fill="none" stroke="black" d="M55,-377.93C55,-369.72 55,-361.04 55,-352.56"/>
<polygon fill="black" stroke="black" points="58.5,-352.34 55,-342.34 51.5,-352.34 58.5,-352.34"/>
</g>
<!-- [root] root -->
<g id="node_4" class="node">
<title>[root] root</title>
<polygon fill="none" stroke="black" points="88,-540 22,-540 22,-504 88,-504 88,-540"/>
<text text-anchor="middle" x="55" y="-520.1" font-family="courier new" font-size="8.00">[root] root</text>
</g>
<!-- [root] root&#45;&gt;[root] ibm_cis_domain_settings.web_domain -->
<g id="edge_3" class="edge">
<title>[root] root&#45;&gt;[root] ibm_cis_domain_settings.web_domain</title>
<path fill="none" stroke="black" d="M55,-503.66C55,-496.37 55,-487.47 55,-478.28"/>
<polygon fill="black" stroke="black" points="58.5,-478.26 55,-468.26 51.5,-478.26 58.5,-478.26"/>
</g>
</g>
</svg>
