<?xml version="1.0" encoding="UTF-8" standalone="no"?>
<!DOCTYPE svg PUBLIC "-//W3C//DTD SVG 1.1//EN"
 "http://www.w3.org/Graphics/SVG/1.1/DTD/svg11.dtd">
<!-- Generated by graphviz version 2.44.1 (20200629.0846)
 -->
<!-- Pages: 1 -->
<svg width="1070pt" height="396pt"
 viewBox="0.00 0.00 1070.00 396.00" xmlns="http://www.w3.org/2000/svg" xmlns:xlink="http://www.w3.org/1999/xlink">
<g id="graph0" class="graph" transform="scale(1 1) rotate(0) translate(4 392)">
<polygon fill="white" stroke="transparent" points="-4,4 -4,-392 1066,-392 1066,4 -4,4"/>
<!-- [root] ibm_is_instance.testacc_instance1 -->
<g id="node_0" class="node">
<title>[root] ibm_is_instance.testacc_instance1</title>
<polygon fill="none" stroke="black" points="0,-296 0,-316 20,-316 20,-296 0,-296"/>
<image xlink:href="static/images/vpc.png" width="14px" height="14px" preserveAspectRatio="xMinYMin meet" x="3" y="-313"/>
<polygon fill="none" stroke="black" points="20,-296 20,-316 148,-316 148,-296 20,-296"/>
<text text-anchor="start" x="38.5" y="-304.1" font-family="courier new" font-size="8.00">ibm_is_instance &#160;&#160;&#160;&#160;</text>
<polygon fill="none" stroke="black" points="148,-296 148,-316 198,-316 198,-296 148,-296"/>
<polygon fill="none" stroke="black" points="0,-276 0,-296 20,-296 20,-276 0,-276"/>
<image xlink:href="static/images/instance.png" width="14px" height="14px" preserveAspectRatio="xMinYMin meet" x="3" y="-293"/>
<polygon fill="none" stroke="black" points="20,-276 20,-296 148,-296 148,-276 20,-276"/>
<text text-anchor="start" x="38.5" y="-284.1" font-family="courier new" font-size="8.00">testacc_instance1 &#160;&#160;</text>
<polygon fill="none" stroke="black" points="148,-276 148,-296 198,-296 198,-276 148,-276"/>
<polygon fill="none" stroke="black" points="0,-256 0,-276 20,-276 20,-256 0,-256"/>
<image xlink:href="static/images/plan.png" width="14px" height="14px" preserveAspectRatio="xMinYMin meet" x="3" y="-273"/>
<polygon fill="none" stroke="black" points="20,-256 20,-276 148,-276 148,-256 20,-256"/>
<text text-anchor="start" x="25" y="-264.1" font-family="courier new" font-size="8.00">&gt;_terraform plan &#160;&#160;&#160;&#160;&#160;&#160;&#160;&#160;&#160;</text>
<polygon fill="none" stroke="black" points="148,-256 148,-276 198,-276 198,-256 148,-256"/>
<image xlink:href="static/images/correct.png" width="32px" height="14px" preserveAspectRatio="xMinYMin meet" x="157" y="-273"/>
<polygon fill="none" stroke="black" points="0,-236 0,-256 20,-256 20,-236 0,-236"/>
<image xlink:href="static/images/policy.png" width="14px" height="14px" preserveAspectRatio="xMinYMin meet" x="3" y="-253"/>
<polygon fill="none" stroke="black" points="20,-236 20,-256 148,-256 148,-236 20,-236"/>
<text text-anchor="start" x="23" y="-244.1" font-family="courier new" font-size="8.00">&gt;_controls verify &#160;&#160;&#160;&#160;&#160;&#160;&#160;&#160;&#160;</text>
<polygon fill="none" stroke="black" points="148,-236 148,-256 198,-256 198,-236 148,-236"/>
<image xlink:href="static/images/hourglass.png" width="32px" height="14px" preserveAspectRatio="xMinYMin meet" x="157" y="-253"/>
<polygon fill="none" stroke="black" points="0,-216 0,-236 20,-236 20,-216 0,-216"/>
<image xlink:href="static/images/cost.png" width="14px" height="14px" preserveAspectRatio="xMinYMin meet" x="3" y="-233"/>
<polygon fill="none" stroke="black" points="20,-216 20,-236 148,-236 148,-216 20,-216"/>
<text text-anchor="start" x="25" y="-224.1" font-family="courier new" font-size="8.00">&gt;_estimate cost &#160;&#160;&#160;&#160;&#160;&#160;&#160;&#160;&#160;&#160;</text>
<polygon fill="none" stroke="black" points="148,-216 148,-236 198,-236 198,-216 148,-216"/>
<text text-anchor="start" x="150" y="-224.1" font-family="courier new" font-size="8.00">74.04 USD </text>
<polygon fill="none" stroke="black" points="0,-196 0,-216 20,-216 20,-196 0,-196"/>
<image xlink:href="static/images/time.png" width="14px" height="14px" preserveAspectRatio="xMinYMin meet" x="3" y="-213"/>
<polygon fill="none" stroke="black" points="20,-196 20,-216 148,-216 148,-196 20,-196"/>
<text text-anchor="start" x="25" y="-204.1" font-family="courier new" font-size="8.00">&gt;_estimate time &#160;&#160;&#160;&#160;&#160;&#160;&#160;&#160;&#160;&#160;</text>
<polygon fill="none" stroke="black" points="148,-196 148,-216 198,-216 198,-196 148,-196"/>
<image xlink:href="static/images/hourglass.png" width="32px" height="14px" preserveAspectRatio="xMinYMin meet" x="157" y="-213"/>
<polygon fill="none" stroke="black" points="0,-176 0,-196 20,-196 20,-176 0,-176"/>
<image xlink:href="static/images/apply.png" width="14px" height="14px" preserveAspectRatio="xMinYMin meet" x="3" y="-193"/>
<polygon fill="none" stroke="black" points="20,-176 20,-196 148,-196 148,-176 20,-176"/>
<text text-anchor="start" x="25" y="-184.1" font-family="courier new" font-size="8.00">&gt;_terraform apply &#160;&#160;&#160;&#160;&#160;&#160;&#160;&#160;</text>
<polygon fill="none" stroke="black" points="148,-176 148,-196 198,-196 198,-176 148,-176"/>
<image xlink:href="static/images/error.png" width="32px" height="14px" preserveAspectRatio="xMinYMin meet" x="157" y="-193"/>
</g>
<!-- [root] ibm_is_lb.lb -->
<g id="node_1" class="node">
<title>[root] ibm_is_lb.lb</title>
<polygon fill="none" stroke="black" points="216,-296 216,-316 236,-316 236,-296 216,-296"/>
<image xlink:href="static/images/vpc.png" width="14px" height="14px" preserveAspectRatio="xMinYMin meet" x="219" y="-313"/>
<polygon fill="none" stroke="black" points="236,-296 236,-316 364,-316 364,-296 236,-296"/>
<text text-anchor="start" x="254.5" y="-304.1" font-family="courier new" font-size="8.00">ibm_is_lb &#160;&#160;&#160;&#160;&#160;&#160;&#160;&#160;&#160;&#160;</text>
<polygon fill="none" stroke="black" points="364,-296 364,-316 414,-316 414,-296 364,-296"/>
<polygon fill="none" stroke="black" points="216,-276 216,-296 236,-296 236,-276 216,-276"/>
<image xlink:href="static/images/instance.png" width="14px" height="14px" preserveAspectRatio="xMinYMin meet" x="219" y="-293"/>
<polygon fill="none" stroke="black" points="236,-276 236,-296 364,-296 364,-276 236,-276"/>
<text text-anchor="start" x="254.5" y="-284.1" font-family="courier new" font-size="8.00">lb &#160;&#160;&#160;&#160;&#160;&#160;&#160;&#160;&#160;&#160;&#160;&#160;&#160;&#160;&#160;&#160;&#160;</text>
<polygon fill="none" stroke="black" points="364,-276 364,-296 414,-296 414,-276 364,-276"/>
<polygon fill="none" stroke="black" points="216,-256 216,-276 236,-276 236,-256 216,-256"/>
<image xlink:href="static/images/plan.png" width="14px" height="14px" preserveAspectRatio="xMinYMin meet" x="219" y="-273"/>
<polygon fill="none" stroke="black" points="236,-256 236,-276 364,-276 364,-256 236,-256"/>
<text text-anchor="start" x="241" y="-264.1" font-family="courier new" font-size="8.00">&gt;_terraform plan &#160;&#160;&#160;&#160;&#160;&#160;&#160;&#160;&#160;</text>
<polygon fill="none" stroke="black" points="364,-256 364,-276 414,-276 414,-256 364,-256"/>
<image xlink:href="static/images/correct.png" width="32px" height="14px" preserveAspectRatio="xMinYMin meet" x="373" y="-273"/>
<polygon fill="none" stroke="black" points="216,-236 216,-256 236,-256 236,-236 216,-236"/>
<image xlink:href="static/images/policy.png" width="14px" height="14px" preserveAspectRatio="xMinYMin meet" x="219" y="-253"/>
<polygon fill="none" stroke="black" points="236,-236 236,-256 364,-256 364,-236 236,-236"/>
<text text-anchor="start" x="239" y="-244.1" font-family="courier new" font-size="8.00">&gt;_controls verify &#160;&#160;&#160;&#160;&#160;&#160;&#160;&#160;&#160;</text>
<polygon fill="none" stroke="black" points="364,-236 364,-256 414,-256 414,-236 364,-236"/>
<image xlink:href="static/images/hourglass.png" width="32px" height="14px" preserveAspectRatio="xMinYMin meet" x="373" y="-253"/>
<polygon fill="none" stroke="black" points="216,-216 216,-236 236,-236 236,-216 216,-216"/>
<image xlink:href="static/images/cost.png" width="14px" height="14px" preserveAspectRatio="xMinYMin meet" x="219" y="-233"/>
<polygon fill="none" stroke="black" points="236,-216 236,-236 364,-236 364,-216 236,-216"/>
<text text-anchor="start" x="241" y="-224.1" font-family="courier new" font-size="8.00">&gt;_estimate cost &#160;&#160;&#160;&#160;&#160;&#160;&#160;&#160;&#160;&#160;</text>
<polygon fill="none" stroke="black" points="364,-216 364,-236 414,-236 414,-216 364,-216"/>
<text text-anchor="start" x="366" y="-224.1" font-family="courier new" font-size="8.00">0 USD &#160;&#160;&#160;&#160;</text>
<polygon fill="none" stroke="black" points="216,-196 216,-216 236,-216 236,-196 216,-196"/>
<image xlink:href="static/images/time.png" width="14px" height="14px" preserveAspectRatio="xMinYMin meet" x="219" y="-213"/>
<polygon fill="none" stroke="black" points="236,-196 236,-216 364,-216 364,-196 236,-196"/>
<text text-anchor="start" x="241" y="-204.1" font-family="courier new" font-size="8.00">&gt;_estimate time &#160;&#160;&#160;&#160;&#160;&#160;&#160;&#160;&#160;&#160;</text>
<polygon fill="none" stroke="black" points="364,-196 364,-216 414,-216 414,-196 364,-196"/>
<image xlink:href="static/images/hourglass.png" width="32px" height="14px" preserveAspectRatio="xMinYMin meet" x="373" y="-213"/>
<polygon fill="none" stroke="black" points="216,-176 216,-196 236,-196 236,-176 216,-176"/>
<image xlink:href="static/images/apply.png" width="14px" height="14px" preserveAspectRatio="xMinYMin meet" x="219" y="-193"/>
<polygon fill="none" stroke="black" points="236,-176 236,-196 364,-196 364,-176 236,-176"/>
<text text-anchor="start" x="241" y="-184.1" font-family="courier new" font-size="8.00">&gt;_terraform apply &#160;&#160;&#160;&#160;&#160;&#160;&#160;&#160;</text>
<polygon fill="none" stroke="black" points="364,-176 364,-196 414,-196 414,-176 364,-176"/>
<image xlink:href="static/images/error.png" width="32px" height="14px" preserveAspectRatio="xMinYMin meet" x="373" y="-193"/>
</g>
<!-- [root] ibm_is_subnet.testacc_subnet -->
<g id="node_2" class="node">
<title>[root] ibm_is_subnet.testacc_subnet</title>
<polygon fill="none" stroke="black" points="432,-296 432,-316 452,-316 452,-296 432,-296"/>
<image xlink:href="static/images/vpc.png" width="14px" height="14px" preserveAspectRatio="xMinYMin meet" x="435" y="-313"/>
<polygon fill="none" stroke="black" points="452,-296 452,-316 580,-316 580,-296 452,-296"/>
<text text-anchor="start" x="470.5" y="-304.1" font-family="courier new" font-size="8.00">ibm_is_subnet &#160;&#160;&#160;&#160;&#160;&#160;</text>
<polygon fill="none" stroke="black" points="580,-296 580,-316 630,-316 630,-296 580,-296"/>
<polygon fill="none" stroke="black" points="432,-276 432,-296 452,-296 452,-276 432,-276"/>
<image xlink:href="static/images/instance.png" width="14px" height="14px" preserveAspectRatio="xMinYMin meet" x="435" y="-293"/>
<polygon fill="none" stroke="black" points="452,-276 452,-296 580,-296 580,-276 452,-276"/>
<text text-anchor="start" x="470.5" y="-284.1" font-family="courier new" font-size="8.00">testacc_subnet &#160;&#160;&#160;&#160;&#160;</text>
<polygon fill="none" stroke="black" points="580,-276 580,-296 630,-296 630,-276 580,-276"/>
<polygon fill="none" stroke="black" points="432,-256 432,-276 452,-276 452,-256 432,-256"/>
<image xlink:href="static/images/plan.png" width="14px" height="14px" preserveAspectRatio="xMinYMin meet" x="435" y="-273"/>
<polygon fill="none" stroke="black" points="452,-256 452,-276 580,-276 580,-256 452,-256"/>
<text text-anchor="start" x="457" y="-264.1" font-family="courier new" font-size="8.00">&gt;_terraform plan &#160;&#160;&#160;&#160;&#160;&#160;&#160;&#160;&#160;</text>
<polygon fill="none" stroke="black" points="580,-256 580,-276 630,-276 630,-256 580,-256"/>
<image xlink:href="static/images/correct.png" width="32px" height="14px" preserveAspectRatio="xMinYMin meet" x="589" y="-273"/>
<polygon fill="none" stroke="black" points="432,-236 432,-256 452,-256 452,-236 432,-236"/>
<image xlink:href="static/images/policy.png" width="14px" height="14px" preserveAspectRatio="xMinYMin meet" x="435" y="-253"/>
<polygon fill="none" stroke="black" points="452,-236 452,-256 580,-256 580,-236 452,-236"/>
<text text-anchor="start" x="455" y="-244.1" font-family="courier new" font-size="8.00">&gt;_controls verify &#160;&#160;&#160;&#160;&#160;&#160;&#160;&#160;&#160;</text>
<polygon fill="none" stroke="black" points="580,-236 580,-256 630,-256 630,-236 580,-236"/>
<image xlink:href="static/images/hourglass.png" width="32px" height="14px" preserveAspectRatio="xMinYMin meet" x="589" y="-253"/>
<polygon fill="none" stroke="black" points="432,-216 432,-236 452,-236 452,-216 432,-216"/>
<image xlink:href="static/images/cost.png" width="14px" height="14px" preserveAspectRatio="xMinYMin meet" x="435" y="-233"/>
<polygon fill="none" stroke="black" points="452,-216 452,-236 580,-236 580,-216 452,-216"/>
<text text-anchor="start" x="457" y="-224.1" font-family="courier new" font-size="8.00">&gt;_estimate cost &#160;&#160;&#160;&#160;&#160;&#160;&#160;&#160;&#160;&#160;</text>
<polygon fill="none" stroke="black" points="580,-216 580,-236 630,-236 630,-216 580,-216"/>
<text text-anchor="start" x="582" y="-224.1" font-family="courier new" font-size="8.00">N/A &#160;&#160;&#160;&#160;&#160;&#160;</text>
<polygon fill="none" stroke="black" points="432,-196 432,-216 452,-216 452,-196 432,-196"/>
<image xlink:href="static/images/time.png" width="14px" height="14px" preserveAspectRatio="xMinYMin meet" x="435" y="-213"/>
<polygon fill="none" stroke="black" points="452,-196 452,-216 580,-216 580,-196 452,-196"/>
<text text-anchor="start" x="457" y="-204.1" font-family="courier new" font-size="8.00">&gt;_estimate time &#160;&#160;&#160;&#160;&#160;&#160;&#160;&#160;&#160;&#160;</text>
<polygon fill="none" stroke="black" points="580,-196 580,-216 630,-216 630,-196 580,-196"/>
<image xlink:href="static/images/hourglass.png" width="32px" height="14px" preserveAspectRatio="xMinYMin meet" x="589" y="-213"/>
<polygon fill="none" stroke="black" points="432,-176 432,-196 452,-196 452,-176 432,-176"/>
<image xlink:href="static/images/apply.png" width="14px" height="14px" preserveAspectRatio="xMinYMin meet" x="435" y="-193"/>
<polygon fill="none" stroke="black" points="452,-176 452,-196 580,-196 580,-176 452,-176"/>
<text text-anchor="start" x="457" y="-184.1" font-family="courier new" font-size="8.00">&gt;_terraform apply &#160;&#160;&#160;&#160;&#160;&#160;&#160;&#160;</text>
<polygon fill="none" stroke="black" points="580,-176 580,-196 630,-196 630,-176 580,-176"/>
<image xlink:href="static/images/correct.png" width="32px" height="14px" preserveAspectRatio="xMinYMin meet" x="589" y="-193"/>
</g>
<!-- [root] ibm_is_vpc.testacc_vpc -->
<g id="node_4" class="node">
<title>[root] ibm_is_vpc.testacc_vpc</title>
<polygon fill="none" stroke="black" points="432,-120 432,-140 452,-140 452,-120 432,-120"/>
<image xlink:href="static/images/vpc.png" width="14px" height="14px" preserveAspectRatio="xMinYMin meet" x="435" y="-137"/>
<polygon fill="none" stroke="black" points="452,-120 452,-140 580,-140 580,-120 452,-120"/>
<text text-anchor="start" x="470.5" y="-128.1" font-family="courier new" font-size="8.00">ibm_is_vpc &#160;&#160;&#160;&#160;&#160;&#160;&#160;&#160;&#160;</text>
<polygon fill="none" stroke="black" points="580,-120 580,-140 630,-140 630,-120 580,-120"/>
<polygon fill="none" stroke="black" points="432,-100 432,-120 452,-120 452,-100 432,-100"/>
<image xlink:href="static/images/instance.png" width="14px" height="14px" preserveAspectRatio="xMinYMin meet" x="435" y="-117"/>
<polygon fill="none" stroke="black" points="452,-100 452,-120 580,-120 580,-100 452,-100"/>
<text text-anchor="start" x="470.5" y="-108.1" font-family="courier new" font-size="8.00">testacc_vpc &#160;&#160;&#160;&#160;&#160;&#160;&#160;&#160;</text>
<polygon fill="none" stroke="black" points="580,-100 580,-120 630,-120 630,-100 580,-100"/>
<polygon fill="none" stroke="black" points="432,-80 432,-100 452,-100 452,-80 432,-80"/>
<image xlink:href="static/images/plan.png" width="14px" height="14px" preserveAspectRatio="xMinYMin meet" x="435" y="-97"/>
<polygon fill="none" stroke="black" points="452,-80 452,-100 580,-100 580,-80 452,-80"/>
<text text-anchor="start" x="457" y="-88.1" font-family="courier new" font-size="8.00">&gt;_terraform plan &#160;&#160;&#160;&#160;&#160;&#160;&#160;&#160;&#160;</text>
<polygon fill="none" stroke="black" points="580,-80 580,-100 630,-100 630,-80 580,-80"/>
<image xlink:href="static/images/correct.png" width="32px" height="14px" preserveAspectRatio="xMinYMin meet" x="589" y="-97"/>
<polygon fill="none" stroke="black" points="432,-60 432,-80 452,-80 452,-60 432,-60"/>
<image xlink:href="static/images/policy.png" width="14px" height="14px" preserveAspectRatio="xMinYMin meet" x="435" y="-77"/>
<polygon fill="none" stroke="black" points="452,-60 452,-80 580,-80 580,-60 452,-60"/>
<text text-anchor="start" x="455" y="-68.1" font-family="courier new" font-size="8.00">&gt;_controls verify &#160;&#160;&#160;&#160;&#160;&#160;&#160;&#160;&#160;</text>
<polygon fill="none" stroke="black" points="580,-60 580,-80 630,-80 630,-60 580,-60"/>
<image xlink:href="static/images/hourglass.png" width="32px" height="14px" preserveAspectRatio="xMinYMin meet" x="589" y="-77"/>
<polygon fill="none" stroke="black" points="432,-40 432,-60 452,-60 452,-40 432,-40"/>
<image xlink:href="static/images/cost.png" width="14px" height="14px" preserveAspectRatio="xMinYMin meet" x="435" y="-57"/>
<polygon fill="none" stroke="black" points="452,-40 452,-60 580,-60 580,-40 452,-40"/>
<text text-anchor="start" x="457" y="-48.1" font-family="courier new" font-size="8.00">&gt;_estimate cost &#160;&#160;&#160;&#160;&#160;&#160;&#160;&#160;&#160;&#160;</text>
<polygon fill="none" stroke="black" points="580,-40 580,-60 630,-60 630,-40 580,-40"/>
<text text-anchor="start" x="582" y="-48.1" font-family="courier new" font-size="8.00">0 USD &#160;&#160;&#160;&#160;</text>
<polygon fill="none" stroke="black" points="432,-20 432,-40 452,-40 452,-20 432,-20"/>
<image xlink:href="static/images/time.png" width="14px" height="14px" preserveAspectRatio="xMinYMin meet" x="435" y="-37"/>
<polygon fill="none" stroke="black" points="452,-20 452,-40 580,-40 580,-20 452,-20"/>
<text text-anchor="start" x="457" y="-28.1" font-family="courier new" font-size="8.00">&gt;_estimate time &#160;&#160;&#160;&#160;&#160;&#160;&#160;&#160;&#160;&#160;</text>
<polygon fill="none" stroke="black" points="580,-20 580,-40 630,-40 630,-20 580,-20"/>
<image xlink:href="static/images/hourglass.png" width="32px" height="14px" preserveAspectRatio="xMinYMin meet" x="589" y="-37"/>
<polygon fill="none" stroke="black" points="432,0 432,-20 452,-20 452,0 432,0"/>
<image xlink:href="static/images/apply.png" width="14px" height="14px" preserveAspectRatio="xMinYMin meet" x="435" y="-17"/>
<polygon fill="none" stroke="black" points="452,0 452,-20 580,-20 580,0 452,0"/>
<text text-anchor="start" x="457" y="-8.1" font-family="courier new" font-size="8.00">&gt;_terraform apply &#160;&#160;&#160;&#160;&#160;&#160;&#160;&#160;</text>
<polygon fill="none" stroke="black" points="580,0 580,-20 630,-20 630,0 580,0"/>
<image xlink:href="static/images/correct.png" width="32px" height="14px" preserveAspectRatio="xMinYMin meet" x="589" y="-17"/>
</g>
<!-- [root] ibm_is_subnet.testacc_subnet&#45;&gt;[root] ibm_is_vpc.testacc_vpc -->
<g id="edge_0" class="edge">
<title>[root] ibm_is_subnet.testacc_subnet&#45;&gt;[root] ibm_is_vpc.testacc_vpc</title>
<path fill="none" stroke="black" d="M531,-175.98C531,-167.52 531,-158.83 531,-150.24"/>
<polygon fill="black" stroke="black" points="534.5,-150.22 531,-140.22 527.5,-150.22 534.5,-150.22"/>
</g>
<!-- [root] ibm_is_volume.testacc_volume -->
<g id="node_3" class="node">
<title>[root] ibm_is_volume.testacc_volume</title>
<polygon fill="none" stroke="black" points="648,-296 648,-316 668,-316 668,-296 648,-296"/>
<image xlink:href="static/images/vpc.png" width="14px" height="14px" preserveAspectRatio="xMinYMin meet" x="651" y="-313"/>
<polygon fill="none" stroke="black" points="668,-296 668,-316 796,-316 796,-296 668,-296"/>
<text text-anchor="start" x="686.5" y="-304.1" font-family="courier new" font-size="8.00">ibm_is_volume &#160;&#160;&#160;&#160;&#160;&#160;</text>
<polygon fill="none" stroke="black" points="796,-296 796,-316 846,-316 846,-296 796,-296"/>
<polygon fill="none" stroke="black" points="648,-276 648,-296 668,-296 668,-276 648,-276"/>
<image xlink:href="static/images/instance.png" width="14px" height="14px" preserveAspectRatio="xMinYMin meet" x="651" y="-293"/>
<polygon fill="none" stroke="black" points="668,-276 668,-296 796,-296 796,-276 668,-276"/>
<text text-anchor="start" x="686.5" y="-284.1" font-family="courier new" font-size="8.00">testacc_volume &#160;&#160;&#160;&#160;&#160;</text>
<polygon fill="none" stroke="black" points="796,-276 796,-296 846,-296 846,-276 796,-276"/>
<polygon fill="none" stroke="black" points="648,-256 648,-276 668,-276 668,-256 648,-256"/>
<image xlink:href="static/images/plan.png" width="14px" height="14px" preserveAspectRatio="xMinYMin meet" x="651" y="-273"/>
<polygon fill="none" stroke="black" points="668,-256 668,-276 796,-276 796,-256 668,-256"/>
<text text-anchor="start" x="673" y="-264.1" font-family="courier new" font-size="8.00">&gt;_terraform plan &#160;&#160;&#160;&#160;&#160;&#160;&#160;&#160;&#160;</text>
<polygon fill="none" stroke="black" points="796,-256 796,-276 846,-276 846,-256 796,-256"/>
<image xlink:href="static/images/correct.png" width="32px" height="14px" preserveAspectRatio="xMinYMin meet" x="805" y="-273"/>
<polygon fill="none" stroke="black" points="648,-236 648,-256 668,-256 668,-236 648,-236"/>
<image xlink:href="static/images/policy.png" width="14px" height="14px" preserveAspectRatio="xMinYMin meet" x="651" y="-253"/>
<polygon fill="none" stroke="black" points="668,-236 668,-256 796,-256 796,-236 668,-236"/>
<text text-anchor="start" x="671" y="-244.1" font-family="courier new" font-size="8.00">&gt;_controls verify &#160;&#160;&#160;&#160;&#160;&#160;&#160;&#160;&#160;</text>
<polygon fill="none" stroke="black" points="796,-236 796,-256 846,-256 846,-236 796,-236"/>
<image xlink:href="static/images/hourglass.png" width="32px" height="14px" preserveAspectRatio="xMinYMin meet" x="805" y="-253"/>
<polygon fill="none" stroke="black" points="648,-216 648,-236 668,-236 668,-216 648,-216"/>
<image xlink:href="static/images/cost.png" width="14px" height="14px" preserveAspectRatio="xMinYMin meet" x="651" y="-233"/>
<polygon fill="none" stroke="black" points="668,-216 668,-236 796,-236 796,-216 668,-216"/>
<text text-anchor="start" x="673" y="-224.1" font-family="courier new" font-size="8.00">&gt;_estimate cost &#160;&#160;&#160;&#160;&#160;&#160;&#160;&#160;&#160;&#160;</text>
<polygon fill="none" stroke="black" points="796,-216 796,-236 846,-236 846,-216 796,-216"/>
<text text-anchor="start" x="798" y="-224.1" font-family="courier new" font-size="8.00">0 USD &#160;&#160;&#160;&#160;</text>
<polygon fill="none" stroke="black" points="648,-196 648,-216 668,-216 668,-196 648,-196"/>
<image xlink:href="static/images/time.png" width="14px" height="14px" preserveAspectRatio="xMinYMin meet" x="651" y="-213"/>
<polygon fill="none" stroke="black" points="668,-196 668,-216 796,-216 796,-196 668,-196"/>
<text text-anchor="start" x="673" y="-204.1" font-family="courier new" font-size="8.00">&gt;_estimate time &#160;&#160;&#160;&#160;&#160;&#160;&#160;&#160;&#160;&#160;</text>
<polygon fill="none" stroke="black" points="796,-196 796,-216 846,-216 846,-196 796,-196"/>
<image xlink:href="static/images/hourglass.png" width="32px" height="14px" preserveAspectRatio="xMinYMin meet" x="805" y="-213"/>
<polygon fill="none" stroke="black" points="648,-176 648,-196 668,-196 668,-176 648,-176"/>
<image xlink:href="static/images/apply.png" width="14px" height="14px" preserveAspectRatio="xMinYMin meet" x="651" y="-193"/>
<polygon fill="none" stroke="black" points="668,-176 668,-196 796,-196 796,-176 668,-176"/>
<text text-anchor="start" x="673" y="-184.1" font-family="courier new" font-size="8.00">&gt;_terraform apply &#160;&#160;&#160;&#160;&#160;&#160;&#160;&#160;</text>
<polygon fill="none" stroke="black" points="796,-176 796,-196 846,-196 846,-176 796,-176"/>
<image xlink:href="static/images/correct.png" width="32px" height="14px" preserveAspectRatio="xMinYMin meet" x="805" y="-193"/>
</g>
<!-- [root] ibm_is_vpn_gateway.testacc_vpn_gateway -->
<g id="node_5" class="node">
<title>[root] ibm_is_vpn_gateway.testacc_vpn_gateway</title>
<polygon fill="none" stroke="black" points="864,-296 864,-316 884,-316 884,-296 864,-296"/>
<image xlink:href="static/images/vpc.png" width="14px" height="14px" preserveAspectRatio="xMinYMin meet" x="867" y="-313"/>
<polygon fill="none" stroke="black" points="884,-296 884,-316 1012,-316 1012,-296 884,-296"/>
<text text-anchor="start" x="902.5" y="-304.1" font-family="courier new" font-size="8.00">ibm_is_vpn_gateway &#160;</text>
<polygon fill="none" stroke="black" points="1012,-296 1012,-316 1062,-316 1062,-296 1012,-296"/>
<polygon fill="none" stroke="black" points="864,-276 864,-296 884,-296 884,-276 864,-276"/>
<image xlink:href="static/images/instance.png" width="14px" height="14px" preserveAspectRatio="xMinYMin meet" x="867" y="-293"/>
<polygon fill="none" stroke="black" points="884,-276 884,-296 1012,-296 1012,-276 884,-276"/>
<text text-anchor="start" x="902.5" y="-284.1" font-family="courier new" font-size="8.00">testacc_vpn_gateway </text>
<polygon fill="none" stroke="black" points="1012,-276 1012,-296 1062,-296 1062,-276 1012,-276"/>
<polygon fill="none" stroke="black" points="864,-256 864,-276 884,-276 884,-256 864,-256"/>
<image xlink:href="static/images/plan.png" width="14px" height="14px" preserveAspectRatio="xMinYMin meet" x="867" y="-273"/>
<polygon fill="none" stroke="black" points="884,-256 884,-276 1012,-276 1012,-256 884,-256"/>
<text text-anchor="start" x="889" y="-264.1" font-family="courier new" font-size="8.00">&gt;_terraform plan &#160;&#160;&#160;&#160;&#160;&#160;&#160;&#160;&#160;</text>
<polygon fill="none" stroke="black" points="1012,-256 1012,-276 1062,-276 1062,-256 1012,-256"/>
<image xlink:href="static/images/correct.png" width="32px" height="14px" preserveAspectRatio="xMinYMin meet" x="1021" y="-273"/>
<polygon fill="none" stroke="black" points="864,-236 864,-256 884,-256 884,-236 864,-236"/>
<image xlink:href="static/images/policy.png" width="14px" height="14px" preserveAspectRatio="xMinYMin meet" x="867" y="-253"/>
<polygon fill="none" stroke="black" points="884,-236 884,-256 1012,-256 1012,-236 884,-236"/>
<text text-anchor="start" x="887" y="-244.1" font-family="courier new" font-size="8.00">&gt;_controls verify &#160;&#160;&#160;&#160;&#160;&#160;&#160;&#160;&#160;</text>
<polygon fill="none" stroke="black" points="1012,-236 1012,-256 1062,-256 1062,-236 1012,-236"/>
<image xlink:href="static/images/hourglass.png" width="32px" height="14px" preserveAspectRatio="xMinYMin meet" x="1021" y="-253"/>
<polygon fill="none" stroke="black" points="864,-216 864,-236 884,-236 884,-216 864,-216"/>
<image xlink:href="static/images/cost.png" width="14px" height="14px" preserveAspectRatio="xMinYMin meet" x="867" y="-233"/>
<polygon fill="none" stroke="black" points="884,-216 884,-236 1012,-236 1012,-216 884,-216"/>
<text text-anchor="start" x="889" y="-224.1" font-family="courier new" font-size="8.00">&gt;_estimate cost &#160;&#160;&#160;&#160;&#160;&#160;&#160;&#160;&#160;&#160;</text>
<polygon fill="none" stroke="black" points="1012,-216 1012,-236 1062,-236 1062,-216 1012,-216"/>
<text text-anchor="start" x="1014" y="-224.1" font-family="courier new" font-size="8.00">1 USD &#160;&#160;&#160;&#160;</text>
<polygon fill="none" stroke="black" points="864,-196 864,-216 884,-216 884,-196 864,-196"/>
<image xlink:href="static/images/time.png" width="14px" height="14px" preserveAspectRatio="xMinYMin meet" x="867" y="-213"/>
<polygon fill="none" stroke="black" points="884,-196 884,-216 1012,-216 1012,-196 884,-196"/>
<text text-anchor="start" x="889" y="-204.1" font-family="courier new" font-size="8.00">&gt;_estimate time &#160;&#160;&#160;&#160;&#160;&#160;&#160;&#160;&#160;&#160;</text>
<polygon fill="none" stroke="black" points="1012,-196 1012,-216 1062,-216 1062,-196 1012,-196"/>
<image xlink:href="static/images/hourglass.png" width="32px" height="14px" preserveAspectRatio="xMinYMin meet" x="1021" y="-213"/>
<polygon fill="none" stroke="black" points="864,-176 864,-196 884,-196 884,-176 864,-176"/>
<image xlink:href="static/images/apply.png" width="14px" height="14px" preserveAspectRatio="xMinYMin meet" x="867" y="-193"/>
<polygon fill="none" stroke="black" points="884,-176 884,-196 1012,-196 1012,-176 884,-176"/>
<text text-anchor="start" x="889" y="-184.1" font-family="courier new" font-size="8.00">&gt;_terraform apply &#160;&#160;&#160;&#160;&#160;&#160;&#160;&#160;</text>
<polygon fill="none" stroke="black" points="1012,-176 1012,-196 1062,-196 1062,-176 1012,-176"/>
<image xlink:href="static/images/error.png" width="32px" height="14px" preserveAspectRatio="xMinYMin meet" x="1021" y="-193"/>
</g>
<!-- [root] root -->
<g id="node_6" class="node">
<title>[root] root</title>
<polygon fill="none" stroke="black" points="503,-370 503,-385 559,-385 559,-370 503,-370"/>
<text text-anchor="start" x="506" y="-375.6" font-family="courier new" font-size="8.00">[root] root</text>
<polygon fill="none" stroke="black" points="503,-355 503,-370 559,-370 559,-355 503,-355"/>
<text text-anchor="start" x="508" y="-360.6" font-family="courier new" font-size="8.00">150.07 USD</text>
</g>
<!-- [root] root&#45;&gt;[root] ibm_is_instance.testacc_instance1 -->
<g id="edge_1" class="edge">
<title>[root] root&#45;&gt;[root] ibm_is_instance.testacc_instance1</title>
<path fill="none" stroke="black" d="M502.7,-368.19C446.78,-365.8 318.61,-356.37 207.9,-316.03"/>
<polygon fill="black" stroke="black" points="208.86,-312.65 198.27,-312.42 206.4,-319.2 208.86,-312.65"/>
</g>
<!-- [root] root&#45;&gt;[root] ibm_is_lb.lb -->
<g id="edge_2" class="edge">
<title>[root] root&#45;&gt;[root] ibm_is_lb.lb</title>
<path fill="none" stroke="black" d="M502.58,-356.12C480.54,-345.88 449.4,-330.85 423,-316 422.91,-315.95 422.82,-315.9 422.73,-315.85"/>
<polygon fill="black" stroke="black" points="424.62,-312.89 414.2,-310.97 421.14,-318.97 424.62,-312.89"/>
</g>
<!-- [root] root&#45;&gt;[root] ibm_is_subnet.testacc_subnet -->
<g id="edge_3" class="edge">
<title>[root] root&#45;&gt;[root] ibm_is_subnet.testacc_subnet</title>
<path fill="none" stroke="black" d="M531,-351.78C531,-344.61 531,-335.74 531,-326.22"/>
<polygon fill="black" stroke="black" points="534.5,-326.11 531,-316.11 527.5,-326.11 534.5,-326.11"/>
</g>
<!-- [root] root&#45;&gt;[root] ibm_is_volume.testacc_volume -->
<g id="edge_4" class="edge">
<title>[root] root&#45;&gt;[root] ibm_is_volume.testacc_volume</title>
<path fill="none" stroke="black" d="M559.42,-356.12C581.46,-345.88 612.6,-330.85 639,-316 639.09,-315.95 639.18,-315.9 639.27,-315.85"/>
<polygon fill="black" stroke="black" points="640.86,-318.97 647.8,-310.97 637.38,-312.89 640.86,-318.97"/>
</g>
<!-- [root] root&#45;&gt;[root] ibm_is_vpn_gateway.testacc_vpn_gateway -->
<g id="edge_5" class="edge">
<title>[root] root&#45;&gt;[root] ibm_is_vpn_gateway.testacc_vpn_gateway</title>
<path fill="none" stroke="black" d="M559.3,-368.19C615.22,-365.8 743.39,-356.37 854.1,-316.03"/>
<polygon fill="black" stroke="black" points="855.6,-319.2 863.73,-312.42 853.14,-312.65 855.6,-319.2"/>
</g>
</g>
</svg>
