<?xml version="1.0" encoding="UTF-8" standalone="no"?>
<!DOCTYPE svg PUBLIC "-//W3C//DTD SVG 1.1//EN"
 "http://www.w3.org/Graphics/SVG/1.1/DTD/svg11.dtd">
<!-- Generated by graphviz version 2.44.1 (20200629.0846)
 -->
<!-- Pages: 1 -->
<svg width="1037pt" height="557pt"
 viewBox="0.00 0.00 1037.00 557.00" xmlns="http://www.w3.org/2000/svg" xmlns:xlink="http://www.w3.org/1999/xlink">
<g id="graph0" class="graph" transform="scale(1 1) rotate(0) translate(4 553)">
<polygon fill="white" stroke="transparent" points="-4,4 -4,-553 1033,-553 1033,4 -4,4"/>
<!-- [root] ibm_cis.demo_web_domain -->
<g id="node_0" class="node">
<title>[root] ibm_cis.demo_web_domain</title>
<polygon fill="none" stroke="black" points="10.5,-201 10.5,-216 111.5,-216 111.5,-201 10.5,-201"/>
<text text-anchor="start" x="45" y="-206.6" font-family="courier new" font-size="8.00">ibm_cis</text>
<polygon fill="none" stroke="black" points="10.5,-186 10.5,-201 111.5,-201 111.5,-186 10.5,-186"/>
<text text-anchor="start" x="27" y="-191.6" font-family="courier new" font-size="8.00">demo_web_domain</text>
<polygon fill="none" stroke="black" points="10.5,-171 10.5,-186 57.5,-186 57.5,-171 10.5,-171"/>
<text text-anchor="start" x="20" y="-176.6" font-family="courier new" font-size="8.00">config</text>
<polygon fill="none" stroke="black" points="57.5,-171 57.5,-186 75.5,-186 75.5,-171 57.5,-171"/>
<text text-anchor="start" x="64" y="-176.6" font-family="courier new" font-size="8.00">+</text>
<polygon fill="none" stroke="black" points="75.5,-171 75.5,-186 111.5,-186 111.5,-171 75.5,-171"/>
<text text-anchor="start" x="82" y="-176.6" font-family="courier new" font-size="8.00">apply</text>
<polygon fill="none" stroke="black" points="10.5,-156 10.5,-171 111.5,-171 111.5,-156 10.5,-156"/>
<text text-anchor="start" x="13.5" y="-161.6" font-family="courier new" font-size="8.00">controls &#160;&#160;&#160;&#160;&#160;&#160;&#160;&#160;&#160;&#160;&#160;&#160;</text>
<polygon fill="none" stroke="black" points="10.5,-141 10.5,-156 111.5,-156 111.5,-141 10.5,-141"/>
<text text-anchor="start" x="15.5" y="-146.6" font-family="courier new" font-size="8.00">N/A &#160;&#160;&#160;&#160;&#160;&#160;&#160;&#160;&#160;&#160;&#160;&#160;&#160;&#160;&#160;&#160;</text>
<polygon fill="none" stroke="black" points="10.5,-126 10.5,-141 111.5,-141 111.5,-126 10.5,-126"/>
<text text-anchor="start" x="15.5" y="-131.6" font-family="courier new" font-size="8.00">00:04:00 &#160;&#160;&#160;&#160;&#160;&#160;&#160;&#160;&#160;&#160;&#160;</text>
</g>
<!-- [root] ibm_resource_group.demo_group1 -->
<g id="node_15" class="node">
<title>[root] ibm_resource_group.demo_group1</title>
<polygon fill="none" stroke="black" points="98.5,-75 98.5,-90 199.5,-90 199.5,-75 98.5,-75"/>
<text text-anchor="start" x="108" y="-80.6" font-family="courier new" font-size="8.00">ibm_resource_group</text>
<polygon fill="none" stroke="black" points="98.5,-60 98.5,-75 199.5,-75 199.5,-60 98.5,-60"/>
<text text-anchor="start" x="124" y="-65.6" font-family="courier new" font-size="8.00">demo_group1</text>
<polygon fill="none" stroke="black" points="98.5,-45 98.5,-60 145.5,-60 145.5,-45 98.5,-45"/>
<text text-anchor="start" x="108" y="-50.6" font-family="courier new" font-size="8.00">config</text>
<polygon fill="none" stroke="black" points="145.5,-45 145.5,-60 163.5,-60 163.5,-45 145.5,-45"/>
<text text-anchor="start" x="152" y="-50.6" font-family="courier new" font-size="8.00">+</text>
<polygon fill="none" stroke="black" points="163.5,-45 163.5,-60 199.5,-60 199.5,-45 163.5,-45"/>
<text text-anchor="start" x="170" y="-50.6" font-family="courier new" font-size="8.00">apply</text>
<polygon fill="none" stroke="black" points="98.5,-30 98.5,-45 199.5,-45 199.5,-30 98.5,-30"/>
<text text-anchor="start" x="101.5" y="-35.6" font-family="courier new" font-size="8.00">controls &#160;&#160;&#160;&#160;&#160;&#160;&#160;&#160;&#160;&#160;&#160;&#160;</text>
<polygon fill="none" stroke="black" points="98.5,-15 98.5,-30 199.5,-30 199.5,-15 98.5,-15"/>
<text text-anchor="start" x="103.5" y="-20.6" font-family="courier new" font-size="8.00">N/A &#160;&#160;&#160;&#160;&#160;&#160;&#160;&#160;&#160;&#160;&#160;&#160;&#160;&#160;&#160;&#160;</text>
<polygon fill="none" stroke="black" points="98.5,0 98.5,-15 199.5,-15 199.5,0 98.5,0"/>
<text text-anchor="start" x="103.5" y="-5.6" font-family="courier new" font-size="8.00">00:00:04 &#160;&#160;&#160;&#160;&#160;&#160;&#160;&#160;&#160;&#160;&#160;</text>
</g>
<!-- [root] ibm_cis.demo_web_domain&#45;&gt;[root] ibm_resource_group.demo_group1 -->
<g id="edge_0" class="edge">
<title>[root] ibm_cis.demo_web_domain&#45;&gt;[root] ibm_resource_group.demo_group1</title>
<path fill="none" stroke="black" d="M91.77,-125.93C98.05,-117.09 104.71,-107.71 111.17,-98.6"/>
<polygon fill="black" stroke="black" points="114.1,-100.52 117.03,-90.34 108.39,-96.47 114.1,-100.52"/>
</g>
<!-- [root] ibm_cis_domain.demo_web_domain -->
<g id="node_1" class="node">
<title>[root] ibm_cis_domain.demo_web_domain</title>
<polygon fill="none" stroke="black" points="0.5,-327 0.5,-342 101.5,-342 101.5,-327 0.5,-327"/>
<text text-anchor="start" x="19" y="-332.6" font-family="courier new" font-size="8.00">ibm_cis_domain</text>
<polygon fill="none" stroke="black" points="0.5,-312 0.5,-327 101.5,-327 101.5,-312 0.5,-312"/>
<text text-anchor="start" x="17" y="-317.6" font-family="courier new" font-size="8.00">demo_web_domain</text>
<polygon fill="none" stroke="black" points="0.5,-297 0.5,-312 47.5,-312 47.5,-297 0.5,-297"/>
<text text-anchor="start" x="10" y="-302.6" font-family="courier new" font-size="8.00">config</text>
<polygon fill="none" stroke="black" points="47.5,-297 47.5,-312 65.5,-312 65.5,-297 47.5,-297"/>
<text text-anchor="start" x="54" y="-302.6" font-family="courier new" font-size="8.00">+</text>
<polygon fill="none" stroke="black" points="65.5,-297 65.5,-312 101.5,-312 101.5,-297 65.5,-297"/>
<text text-anchor="start" x="72" y="-302.6" font-family="courier new" font-size="8.00">apply</text>
<polygon fill="none" stroke="black" points="0.5,-282 0.5,-297 101.5,-297 101.5,-282 0.5,-282"/>
<text text-anchor="start" x="3.5" y="-287.6" font-family="courier new" font-size="8.00">controls &#160;&#160;&#160;&#160;&#160;&#160;&#160;&#160;&#160;&#160;&#160;&#160;</text>
<polygon fill="none" stroke="black" points="0.5,-267 0.5,-282 101.5,-282 101.5,-267 0.5,-267"/>
<text text-anchor="start" x="5.5" y="-272.6" font-family="courier new" font-size="8.00">N/A &#160;&#160;&#160;&#160;&#160;&#160;&#160;&#160;&#160;&#160;&#160;&#160;&#160;&#160;&#160;&#160;</text>
<polygon fill="none" stroke="black" points="0.5,-252 0.5,-267 101.5,-267 101.5,-252 0.5,-252"/>
<text text-anchor="start" x="5.5" y="-257.6" font-family="courier new" font-size="8.00">00:04:01 &#160;&#160;&#160;&#160;&#160;&#160;&#160;&#160;&#160;&#160;&#160;</text>
</g>
<!-- [root] ibm_cis_domain.demo_web_domain&#45;&gt;[root] ibm_cis.demo_web_domain -->
<g id="edge_1" class="edge">
<title>[root] ibm_cis_domain.demo_web_domain&#45;&gt;[root] ibm_cis.demo_web_domain</title>
<path fill="none" stroke="black" d="M54.05,-251.93C54.72,-243.72 55.42,-235.04 56.1,-226.56"/>
<polygon fill="black" stroke="black" points="59.61,-226.59 56.92,-216.34 52.63,-226.03 59.61,-226.59"/>
</g>
<!-- [root] ibm_cis_domain_settings.demo_web_domain -->
<g id="node_2" class="node">
<title>[root] ibm_cis_domain_settings.demo_web_domain</title>
<polygon fill="none" stroke="black" points="50.5,-453 50.5,-468 160.5,-468 160.5,-453 50.5,-453"/>
<text text-anchor="start" x="53.5" y="-458.6" font-family="courier new" font-size="8.00">ibm_cis_domain_settings</text>
<polygon fill="none" stroke="black" points="50.5,-438 50.5,-453 160.5,-453 160.5,-438 50.5,-438"/>
<text text-anchor="start" x="71.5" y="-443.6" font-family="courier new" font-size="8.00">demo_web_domain</text>
<polygon fill="none" stroke="black" points="50.5,-423 50.5,-438 102.5,-438 102.5,-423 50.5,-423"/>
<text text-anchor="start" x="62.5" y="-428.6" font-family="courier new" font-size="8.00">config</text>
<polygon fill="none" stroke="black" points="102.5,-423 102.5,-438 122.5,-438 122.5,-423 102.5,-423"/>
<text text-anchor="start" x="110" y="-428.6" font-family="courier new" font-size="8.00">+</text>
<polygon fill="none" stroke="black" points="122.5,-423 122.5,-438 160.5,-438 160.5,-423 122.5,-423"/>
<text text-anchor="start" x="130" y="-428.6" font-family="courier new" font-size="8.00">apply</text>
<polygon fill="none" stroke="black" points="50.5,-408 50.5,-423 160.5,-423 160.5,-408 50.5,-408"/>
<text text-anchor="start" x="58" y="-413.6" font-family="courier new" font-size="8.00">controls &#160;&#160;&#160;&#160;&#160;&#160;&#160;&#160;&#160;&#160;&#160;&#160;</text>
<polygon fill="none" stroke="black" points="50.5,-393 50.5,-408 160.5,-408 160.5,-393 50.5,-393"/>
<text text-anchor="start" x="60" y="-398.6" font-family="courier new" font-size="8.00">N/A &#160;&#160;&#160;&#160;&#160;&#160;&#160;&#160;&#160;&#160;&#160;&#160;&#160;&#160;&#160;&#160;</text>
<polygon fill="none" stroke="black" points="50.5,-378 50.5,-393 160.5,-393 160.5,-378 50.5,-378"/>
<text text-anchor="start" x="60" y="-383.6" font-family="courier new" font-size="8.00">00:04:02 &#160;&#160;&#160;&#160;&#160;&#160;&#160;&#160;&#160;&#160;&#160;</text>
</g>
<!-- [root] ibm_cis_domain_settings.demo_web_domain&#45;&gt;[root] ibm_cis_domain.demo_web_domain -->
<g id="edge_2" class="edge">
<title>[root] ibm_cis_domain_settings.demo_web_domain&#45;&gt;[root] ibm_cis_domain.demo_web_domain</title>
<path fill="none" stroke="black" d="M85.95,-377.93C82.19,-369.45 78.21,-360.47 74.33,-351.72"/>
<polygon fill="black" stroke="black" points="77.42,-350.06 70.17,-342.34 71.02,-352.9 77.42,-350.06"/>
</g>
<!-- [root] ibm_container_bind_service.bind_service -->
<g id="node_3" class="node">
<title>[root] ibm_container_bind_service.bind_service</title>
<polygon fill="none" stroke="black" points="232.5,-453 232.5,-468 356.5,-468 356.5,-453 232.5,-453"/>
<text text-anchor="start" x="235.5" y="-458.6" font-family="courier new" font-size="8.00">ibm_container_bind_service</text>
<polygon fill="none" stroke="black" points="232.5,-438 232.5,-453 356.5,-453 356.5,-438 232.5,-438"/>
<text text-anchor="start" x="267" y="-443.6" font-family="courier new" font-size="8.00">bind_service</text>
<polygon fill="none" stroke="black" points="232.5,-423 232.5,-438 291.5,-438 291.5,-423 232.5,-423"/>
<text text-anchor="start" x="248" y="-428.6" font-family="courier new" font-size="8.00">config</text>
<polygon fill="none" stroke="black" points="291.5,-423 291.5,-438 314.5,-438 314.5,-423 291.5,-423"/>
<text text-anchor="start" x="300.5" y="-428.6" font-family="courier new" font-size="8.00">+</text>
<polygon fill="none" stroke="black" points="314.5,-423 314.5,-438 356.5,-438 356.5,-423 314.5,-423"/>
<text text-anchor="start" x="324" y="-428.6" font-family="courier new" font-size="8.00">apply</text>
<polygon fill="none" stroke="black" points="232.5,-408 232.5,-423 356.5,-423 356.5,-408 232.5,-408"/>
<text text-anchor="start" x="247" y="-413.6" font-family="courier new" font-size="8.00">controls &#160;&#160;&#160;&#160;&#160;&#160;&#160;&#160;&#160;&#160;&#160;&#160;</text>
<polygon fill="none" stroke="black" points="232.5,-393 232.5,-408 356.5,-408 356.5,-393 232.5,-393"/>
<text text-anchor="start" x="249" y="-398.6" font-family="courier new" font-size="8.00">N/A &#160;&#160;&#160;&#160;&#160;&#160;&#160;&#160;&#160;&#160;&#160;&#160;&#160;&#160;&#160;&#160;</text>
<polygon fill="none" stroke="black" points="232.5,-378 232.5,-393 356.5,-393 356.5,-378 232.5,-378"/>
<text text-anchor="start" x="249" y="-383.6" font-family="courier new" font-size="8.00">00:05:00 &#160;&#160;&#160;&#160;&#160;&#160;&#160;&#160;&#160;&#160;&#160;</text>
</g>
<!-- [root] ibm_container_vpc_cluster.cluster -->
<g id="node_4" class="node">
<title>[root] ibm_container_vpc_cluster.cluster</title>
<polygon fill="none" stroke="black" points="119.5,-327 119.5,-342 238.5,-342 238.5,-327 119.5,-327"/>
<text text-anchor="start" x="122.5" y="-332.6" font-family="courier new" font-size="8.00">ibm_container_vpc_cluster</text>
<polygon fill="none" stroke="black" points="119.5,-312 119.5,-327 238.5,-327 238.5,-312 119.5,-312"/>
<text text-anchor="start" x="163" y="-317.6" font-family="courier new" font-size="8.00">cluster</text>
<polygon fill="none" stroke="black" points="119.5,-297 119.5,-312 175.5,-312 175.5,-297 119.5,-297"/>
<text text-anchor="start" x="133.5" y="-302.6" font-family="courier new" font-size="8.00">config</text>
<polygon fill="none" stroke="black" points="175.5,-297 175.5,-312 197.5,-312 197.5,-297 175.5,-297"/>
<text text-anchor="start" x="184" y="-302.6" font-family="courier new" font-size="8.00">+</text>
<polygon fill="none" stroke="black" points="197.5,-297 197.5,-312 238.5,-312 238.5,-297 197.5,-297"/>
<text text-anchor="start" x="206.5" y="-302.6" font-family="courier new" font-size="8.00">apply</text>
<polygon fill="none" stroke="black" points="119.5,-282 119.5,-297 238.5,-297 238.5,-282 119.5,-282"/>
<text text-anchor="start" x="131.5" y="-287.6" font-family="courier new" font-size="8.00">controls &#160;&#160;&#160;&#160;&#160;&#160;&#160;&#160;&#160;&#160;&#160;&#160;</text>
<polygon fill="none" stroke="black" points="119.5,-267 119.5,-282 238.5,-282 238.5,-267 119.5,-267"/>
<text text-anchor="start" x="133.5" y="-272.6" font-family="courier new" font-size="8.00">269.1 USD &#160;&#160;&#160;&#160;&#160;&#160;&#160;&#160;&#160;&#160;</text>
<polygon fill="none" stroke="black" points="119.5,-252 119.5,-267 238.5,-267 238.5,-252 119.5,-252"/>
<text text-anchor="start" x="133.5" y="-257.6" font-family="courier new" font-size="8.00">13:00:00 &#160;&#160;&#160;&#160;&#160;&#160;&#160;&#160;&#160;&#160;&#160;</text>
</g>
<!-- [root] ibm_container_bind_service.bind_service&#45;&gt;[root] ibm_container_vpc_cluster.cluster -->
<g id="edge_3" class="edge">
<title>[root] ibm_container_bind_service.bind_service&#45;&gt;[root] ibm_container_vpc_cluster.cluster</title>
<path fill="none" stroke="black" d="M253.28,-377.93C244.75,-368.82 235.69,-359.13 226.93,-349.77"/>
<polygon fill="black" stroke="black" points="229.37,-347.25 219.98,-342.34 224.26,-352.04 229.37,-347.25"/>
</g>
<!-- [root] ibm_resource_instance.cos_instance -->
<g id="node_16" class="node">
<title>[root] ibm_resource_instance.cos_instance</title>
<polygon fill="none" stroke="black" points="256.5,-327 256.5,-342 357.5,-342 357.5,-327 256.5,-327"/>
<text text-anchor="start" x="259.5" y="-332.6" font-family="courier new" font-size="8.00">ibm_resource_instance</text>
<polygon fill="none" stroke="black" points="256.5,-312 256.5,-327 357.5,-327 357.5,-312 256.5,-312"/>
<text text-anchor="start" x="279.5" y="-317.6" font-family="courier new" font-size="8.00">cos_instance</text>
<polygon fill="none" stroke="black" points="256.5,-297 256.5,-312 303.5,-312 303.5,-297 256.5,-297"/>
<text text-anchor="start" x="266" y="-302.6" font-family="courier new" font-size="8.00">config</text>
<polygon fill="none" stroke="black" points="303.5,-297 303.5,-312 321.5,-312 321.5,-297 303.5,-297"/>
<text text-anchor="start" x="310" y="-302.6" font-family="courier new" font-size="8.00">+</text>
<polygon fill="none" stroke="black" points="321.5,-297 321.5,-312 357.5,-312 357.5,-297 321.5,-297"/>
<text text-anchor="start" x="328" y="-302.6" font-family="courier new" font-size="8.00">apply</text>
<polygon fill="none" stroke="black" points="256.5,-282 256.5,-297 357.5,-297 357.5,-282 256.5,-282"/>
<text text-anchor="start" x="259.5" y="-287.6" font-family="courier new" font-size="8.00">controls &#160;&#160;&#160;&#160;&#160;&#160;&#160;&#160;&#160;&#160;&#160;&#160;</text>
<polygon fill="none" stroke="black" points="256.5,-267 256.5,-282 357.5,-282 357.5,-267 256.5,-267"/>
<text text-anchor="start" x="261.5" y="-272.6" font-family="courier new" font-size="8.00">N/A &#160;&#160;&#160;&#160;&#160;&#160;&#160;&#160;&#160;&#160;&#160;&#160;&#160;&#160;&#160;&#160;</text>
<polygon fill="none" stroke="black" points="256.5,-252 256.5,-267 357.5,-267 357.5,-252 256.5,-252"/>
<text text-anchor="start" x="261.5" y="-257.6" font-family="courier new" font-size="8.00">00:01:00 &#160;&#160;&#160;&#160;&#160;&#160;&#160;&#160;&#160;&#160;&#160;</text>
</g>
<!-- [root] ibm_container_bind_service.bind_service&#45;&gt;[root] ibm_resource_instance.cos_instance -->
<g id="edge_4" class="edge">
<title>[root] ibm_container_bind_service.bind_service&#45;&gt;[root] ibm_resource_instance.cos_instance</title>
<path fill="none" stroke="black" d="M298.76,-377.93C299.56,-369.72 300.4,-361.04 301.22,-352.56"/>
<polygon fill="black" stroke="black" points="304.73,-352.63 302.21,-342.34 297.76,-351.96 304.73,-352.63"/>
</g>
<!-- [root] ibm_is_subnet.subnet1 -->
<g id="node_11" class="node">
<title>[root] ibm_is_subnet.subnet1</title>
<polygon fill="none" stroke="black" points="177.5,-201 177.5,-216 278.5,-216 278.5,-201 177.5,-201"/>
<text text-anchor="start" x="198.5" y="-206.6" font-family="courier new" font-size="8.00">ibm_is_subnet</text>
<polygon fill="none" stroke="black" points="177.5,-186 177.5,-201 278.5,-201 278.5,-186 177.5,-186"/>
<text text-anchor="start" x="212" y="-191.6" font-family="courier new" font-size="8.00">subnet1</text>
<polygon fill="none" stroke="black" points="177.5,-171 177.5,-186 224.5,-186 224.5,-171 177.5,-171"/>
<text text-anchor="start" x="187" y="-176.6" font-family="courier new" font-size="8.00">config</text>
<polygon fill="none" stroke="black" points="224.5,-171 224.5,-186 242.5,-186 242.5,-171 224.5,-171"/>
<text text-anchor="start" x="231" y="-176.6" font-family="courier new" font-size="8.00">+</text>
<polygon fill="none" stroke="black" points="242.5,-171 242.5,-186 278.5,-186 278.5,-171 242.5,-171"/>
<text text-anchor="start" x="249" y="-176.6" font-family="courier new" font-size="8.00">apply</text>
<polygon fill="none" stroke="black" points="177.5,-156 177.5,-171 278.5,-171 278.5,-156 177.5,-156"/>
<text text-anchor="start" x="180.5" y="-161.6" font-family="courier new" font-size="8.00">controls &#160;&#160;&#160;&#160;&#160;&#160;&#160;&#160;&#160;&#160;&#160;&#160;</text>
<polygon fill="none" stroke="black" points="177.5,-141 177.5,-156 278.5,-156 278.5,-141 177.5,-141"/>
<text text-anchor="start" x="182.5" y="-146.6" font-family="courier new" font-size="8.00">0 USD &#160;&#160;&#160;&#160;&#160;&#160;&#160;&#160;&#160;&#160;&#160;&#160;&#160;&#160;</text>
<polygon fill="none" stroke="black" points="177.5,-126 177.5,-141 278.5,-141 278.5,-126 177.5,-126"/>
<text text-anchor="start" x="182.5" y="-131.6" font-family="courier new" font-size="8.00">00:00:12 &#160;&#160;&#160;&#160;&#160;&#160;&#160;&#160;&#160;&#160;&#160;</text>
</g>
<!-- [root] ibm_container_vpc_cluster.cluster&#45;&gt;[root] ibm_is_subnet.subnet1 -->
<g id="edge_5" class="edge">
<title>[root] ibm_container_vpc_cluster.cluster&#45;&gt;[root] ibm_is_subnet.subnet1</title>
<path fill="none" stroke="black" d="M195.91,-251.93C199.27,-243.45 202.81,-234.47 206.27,-225.72"/>
<polygon fill="black" stroke="black" points="209.56,-226.93 209.98,-216.34 203.05,-224.36 209.56,-226.93"/>
</g>
<!-- [root] ibm_container_vpc_cluster.cluster&#45;&gt;[root] ibm_resource_group.demo_group1 -->
<g id="edge_6" class="edge">
<title>[root] ibm_container_vpc_cluster.cluster&#45;&gt;[root] ibm_resource_group.demo_group1</title>
<path fill="none" stroke="black" d="M172.19,-251.6C170.6,-240.02 168.94,-227.55 167.5,-216 162.67,-177.27 157.8,-133.51 154.19,-100.09"/>
<polygon fill="black" stroke="black" points="157.66,-99.63 153.12,-90.07 150.7,-100.38 157.66,-99.63"/>
</g>
<!-- [root] ibm_cos_bucket.standard&#45;ams03 -->
<g id="node_5" class="node">
<title>[root] ibm_cos_bucket.standard&#45;ams03</title>
<polygon fill="none" stroke="black" points="375.5,-453 375.5,-468 476.5,-468 476.5,-453 375.5,-453"/>
<text text-anchor="start" x="394" y="-458.6" font-family="courier new" font-size="8.00">ibm_cos_bucket</text>
<polygon fill="none" stroke="black" points="375.5,-438 375.5,-453 476.5,-453 476.5,-438 375.5,-438"/>
<text text-anchor="start" x="394" y="-443.6" font-family="courier new" font-size="8.00">standard&#45;ams03</text>
<polygon fill="none" stroke="black" points="375.5,-423 375.5,-438 422.5,-438 422.5,-423 375.5,-423"/>
<text text-anchor="start" x="385" y="-428.6" font-family="courier new" font-size="8.00">config</text>
<polygon fill="none" stroke="black" points="422.5,-423 422.5,-438 440.5,-438 440.5,-423 422.5,-423"/>
<text text-anchor="start" x="429" y="-428.6" font-family="courier new" font-size="8.00">+</text>
<polygon fill="none" stroke="black" points="440.5,-423 440.5,-438 476.5,-438 476.5,-423 440.5,-423"/>
<text text-anchor="start" x="447" y="-428.6" font-family="courier new" font-size="8.00">apply</text>
<polygon fill="none" stroke="black" points="375.5,-408 375.5,-423 476.5,-423 476.5,-408 375.5,-408"/>
<text text-anchor="start" x="378.5" y="-413.6" font-family="courier new" font-size="8.00">controls &#160;&#160;&#160;&#160;&#160;&#160;&#160;&#160;&#160;&#160;&#160;&#160;</text>
<polygon fill="none" stroke="black" points="375.5,-393 375.5,-408 476.5,-408 476.5,-393 375.5,-393"/>
<text text-anchor="start" x="380.5" y="-398.6" font-family="courier new" font-size="8.00">N/A &#160;&#160;&#160;&#160;&#160;&#160;&#160;&#160;&#160;&#160;&#160;&#160;&#160;&#160;&#160;&#160;</text>
<polygon fill="none" stroke="black" points="375.5,-378 375.5,-393 476.5,-393 476.5,-378 375.5,-378"/>
<text text-anchor="start" x="380.5" y="-383.6" font-family="courier new" font-size="8.00">00:00:12 &#160;&#160;&#160;&#160;&#160;&#160;&#160;&#160;&#160;&#160;&#160;</text>
</g>
<!-- [root] ibm_kp_key.cos_encrypt -->
<g id="node_14" class="node">
<title>[root] ibm_kp_key.cos_encrypt</title>
<polygon fill="none" stroke="black" points="375.5,-327 375.5,-342 476.5,-342 476.5,-327 375.5,-327"/>
<text text-anchor="start" x="403" y="-332.6" font-family="courier new" font-size="8.00">ibm_kp_key</text>
<polygon fill="none" stroke="black" points="375.5,-312 375.5,-327 476.5,-327 476.5,-312 375.5,-312"/>
<text text-anchor="start" x="401" y="-317.6" font-family="courier new" font-size="8.00">cos_encrypt</text>
<polygon fill="none" stroke="black" points="375.5,-297 375.5,-312 422.5,-312 422.5,-297 375.5,-297"/>
<text text-anchor="start" x="385" y="-302.6" font-family="courier new" font-size="8.00">config</text>
<polygon fill="none" stroke="black" points="422.5,-297 422.5,-312 440.5,-312 440.5,-297 422.5,-297"/>
<text text-anchor="start" x="429" y="-302.6" font-family="courier new" font-size="8.00">+</text>
<polygon fill="none" stroke="black" points="440.5,-297 440.5,-312 476.5,-312 476.5,-297 440.5,-297"/>
<text text-anchor="start" x="447" y="-302.6" font-family="courier new" font-size="8.00">apply</text>
<polygon fill="none" stroke="black" points="375.5,-282 375.5,-297 476.5,-297 476.5,-282 375.5,-282"/>
<text text-anchor="start" x="378.5" y="-287.6" font-family="courier new" font-size="8.00">controls &#160;&#160;&#160;&#160;&#160;&#160;&#160;&#160;&#160;&#160;&#160;&#160;</text>
<polygon fill="none" stroke="black" points="375.5,-267 375.5,-282 476.5,-282 476.5,-267 375.5,-267"/>
<text text-anchor="start" x="380.5" y="-272.6" font-family="courier new" font-size="8.00">N/A &#160;&#160;&#160;&#160;&#160;&#160;&#160;&#160;&#160;&#160;&#160;&#160;&#160;&#160;&#160;&#160;</text>
<polygon fill="none" stroke="black" points="375.5,-252 375.5,-267 476.5,-267 476.5,-252 375.5,-252"/>
<text text-anchor="start" x="380.5" y="-257.6" font-family="courier new" font-size="8.00">00:00:02 &#160;&#160;&#160;&#160;&#160;&#160;&#160;&#160;&#160;&#160;&#160;</text>
</g>
<!-- [root] ibm_cos_bucket.standard&#45;ams03&#45;&gt;[root] ibm_kp_key.cos_encrypt -->
<g id="edge_7" class="edge">
<title>[root] ibm_cos_bucket.standard&#45;ams03&#45;&gt;[root] ibm_kp_key.cos_encrypt</title>
<path fill="none" stroke="black" d="M425.5,-377.93C425.5,-369.72 425.5,-361.04 425.5,-352.56"/>
<polygon fill="black" stroke="black" points="429,-352.34 425.5,-342.34 422,-352.34 429,-352.34"/>
</g>
<!-- [root] ibm_cos_bucket.standard&#45;ams03&#45;&gt;[root] ibm_resource_instance.cos_instance -->
<g id="edge_8" class="edge">
<title>[root] ibm_cos_bucket.standard&#45;ams03&#45;&gt;[root] ibm_resource_instance.cos_instance</title>
<path fill="none" stroke="black" d="M383.21,-377.93C374.46,-368.82 365.17,-359.13 356.18,-349.77"/>
<polygon fill="black" stroke="black" points="358.5,-347.13 349.05,-342.34 353.45,-351.98 358.5,-347.13"/>
</g>
<!-- [root] ibm_iam_authorization_policy.policy -->
<g id="node_6" class="node">
<title>[root] ibm_iam_authorization_policy.policy</title>
<polygon fill="none" stroke="black" points="533.5,-453 533.5,-468 666.5,-468 666.5,-453 533.5,-453"/>
<text text-anchor="start" x="536.5" y="-458.6" font-family="courier new" font-size="8.00">ibm_iam_authorization_policy</text>
<polygon fill="none" stroke="black" points="533.5,-438 533.5,-453 666.5,-453 666.5,-438 533.5,-438"/>
<text text-anchor="start" x="586" y="-443.6" font-family="courier new" font-size="8.00">policy</text>
<polygon fill="none" stroke="black" points="533.5,-423 533.5,-438 596.5,-438 596.5,-423 533.5,-423"/>
<text text-anchor="start" x="551" y="-428.6" font-family="courier new" font-size="8.00">config</text>
<polygon fill="none" stroke="black" points="596.5,-423 596.5,-438 622.5,-438 622.5,-423 596.5,-423"/>
<text text-anchor="start" x="607" y="-428.6" font-family="courier new" font-size="8.00">+</text>
<polygon fill="none" stroke="black" points="622.5,-423 622.5,-438 666.5,-438 666.5,-423 622.5,-423"/>
<text text-anchor="start" x="633" y="-428.6" font-family="courier new" font-size="8.00">apply</text>
<polygon fill="none" stroke="black" points="533.5,-408 533.5,-423 666.5,-423 666.5,-408 533.5,-408"/>
<text text-anchor="start" x="552.5" y="-413.6" font-family="courier new" font-size="8.00">controls &#160;&#160;&#160;&#160;&#160;&#160;&#160;&#160;&#160;&#160;&#160;&#160;</text>
<polygon fill="none" stroke="black" points="533.5,-393 533.5,-408 666.5,-408 666.5,-393 533.5,-393"/>
<text text-anchor="start" x="554.5" y="-398.6" font-family="courier new" font-size="8.00">N/A &#160;&#160;&#160;&#160;&#160;&#160;&#160;&#160;&#160;&#160;&#160;&#160;&#160;&#160;&#160;&#160;</text>
<polygon fill="none" stroke="black" points="533.5,-378 533.5,-393 666.5,-393 666.5,-378 533.5,-378"/>
<text text-anchor="start" x="554.5" y="-383.6" font-family="courier new" font-size="8.00">00:02:05 &#160;&#160;&#160;&#160;&#160;&#160;&#160;&#160;&#160;&#160;&#160;</text>
</g>
<!-- [root] ibm_iam_service_id.serviceID -->
<g id="node_7" class="node">
<title>[root] ibm_iam_service_id.serviceID</title>
<polygon fill="none" stroke="black" points="687.5,-327 687.5,-342 788.5,-342 788.5,-327 687.5,-327"/>
<text text-anchor="start" x="697" y="-332.6" font-family="courier new" font-size="8.00">ibm_iam_service_id</text>
<polygon fill="none" stroke="black" points="687.5,-312 687.5,-327 788.5,-327 788.5,-312 687.5,-312"/>
<text text-anchor="start" x="717.5" y="-317.6" font-family="courier new" font-size="8.00">serviceID</text>
<polygon fill="none" stroke="black" points="687.5,-297 687.5,-312 734.5,-312 734.5,-297 687.5,-297"/>
<text text-anchor="start" x="697" y="-302.6" font-family="courier new" font-size="8.00">config</text>
<polygon fill="none" stroke="black" points="734.5,-297 734.5,-312 752.5,-312 752.5,-297 734.5,-297"/>
<text text-anchor="start" x="741" y="-302.6" font-family="courier new" font-size="8.00">+</text>
<polygon fill="none" stroke="black" points="752.5,-297 752.5,-312 788.5,-312 788.5,-297 752.5,-297"/>
<text text-anchor="start" x="759" y="-302.6" font-family="courier new" font-size="8.00">apply</text>
<polygon fill="none" stroke="black" points="687.5,-282 687.5,-297 788.5,-297 788.5,-282 687.5,-282"/>
<text text-anchor="start" x="690.5" y="-287.6" font-family="courier new" font-size="8.00">controls &#160;&#160;&#160;&#160;&#160;&#160;&#160;&#160;&#160;&#160;&#160;&#160;</text>
<polygon fill="none" stroke="black" points="687.5,-267 687.5,-282 788.5,-282 788.5,-267 687.5,-267"/>
<text text-anchor="start" x="692.5" y="-272.6" font-family="courier new" font-size="8.00">N/A &#160;&#160;&#160;&#160;&#160;&#160;&#160;&#160;&#160;&#160;&#160;&#160;&#160;&#160;&#160;&#160;</text>
<polygon fill="none" stroke="black" points="687.5,-252 687.5,-267 788.5,-267 788.5,-252 687.5,-252"/>
<text text-anchor="start" x="692.5" y="-257.6" font-family="courier new" font-size="8.00">00:02:09 &#160;&#160;&#160;&#160;&#160;&#160;&#160;&#160;&#160;&#160;&#160;</text>
</g>
<!-- [root] ibm_iam_service_policy.policy -->
<g id="node_8" class="node">
<title>[root] ibm_iam_service_policy.policy</title>
<polygon fill="none" stroke="black" points="684.5,-453 684.5,-468 790.5,-468 790.5,-453 684.5,-453"/>
<text text-anchor="start" x="687.5" y="-458.6" font-family="courier new" font-size="8.00">ibm_iam_service_policy</text>
<polygon fill="none" stroke="black" points="684.5,-438 684.5,-453 790.5,-453 790.5,-438 684.5,-438"/>
<text text-anchor="start" x="723.5" y="-443.6" font-family="courier new" font-size="8.00">policy</text>
<polygon fill="none" stroke="black" points="684.5,-423 684.5,-438 734.5,-438 734.5,-423 684.5,-423"/>
<text text-anchor="start" x="695.5" y="-428.6" font-family="courier new" font-size="8.00">config</text>
<polygon fill="none" stroke="black" points="734.5,-423 734.5,-438 753.5,-438 753.5,-423 734.5,-423"/>
<text text-anchor="start" x="741.5" y="-428.6" font-family="courier new" font-size="8.00">+</text>
<polygon fill="none" stroke="black" points="753.5,-423 753.5,-438 790.5,-438 790.5,-423 753.5,-423"/>
<text text-anchor="start" x="760.5" y="-428.6" font-family="courier new" font-size="8.00">apply</text>
<polygon fill="none" stroke="black" points="684.5,-408 684.5,-423 790.5,-423 790.5,-408 684.5,-408"/>
<text text-anchor="start" x="690" y="-413.6" font-family="courier new" font-size="8.00">controls &#160;&#160;&#160;&#160;&#160;&#160;&#160;&#160;&#160;&#160;&#160;&#160;</text>
<polygon fill="none" stroke="black" points="684.5,-393 684.5,-408 790.5,-408 790.5,-393 684.5,-393"/>
<text text-anchor="start" x="692" y="-398.6" font-family="courier new" font-size="8.00">N/A &#160;&#160;&#160;&#160;&#160;&#160;&#160;&#160;&#160;&#160;&#160;&#160;&#160;&#160;&#160;&#160;</text>
<polygon fill="none" stroke="black" points="684.5,-378 684.5,-393 790.5,-393 790.5,-378 684.5,-378"/>
<text text-anchor="start" x="692" y="-383.6" font-family="courier new" font-size="8.00">00:02:10 &#160;&#160;&#160;&#160;&#160;&#160;&#160;&#160;&#160;&#160;&#160;</text>
</g>
<!-- [root] ibm_iam_service_policy.policy&#45;&gt;[root] ibm_iam_service_id.serviceID -->
<g id="edge_9" class="edge">
<title>[root] ibm_iam_service_policy.policy&#45;&gt;[root] ibm_iam_service_id.serviceID</title>
<path fill="none" stroke="black" d="M737.5,-377.93C737.5,-369.72 737.5,-361.04 737.5,-352.56"/>
<polygon fill="black" stroke="black" points="741,-352.34 737.5,-342.34 734,-352.34 741,-352.34"/>
</g>
<!-- [root] ibm_iam_user_policy.policy1 -->
<g id="node_9" class="node">
<title>[root] ibm_iam_user_policy.policy1</title>
<polygon fill="none" stroke="black" points="809.5,-453 809.5,-468 910.5,-468 910.5,-453 809.5,-453"/>
<text text-anchor="start" x="817" y="-458.6" font-family="courier new" font-size="8.00">ibm_iam_user_policy</text>
<polygon fill="none" stroke="black" points="809.5,-438 809.5,-453 910.5,-453 910.5,-438 809.5,-438"/>
<text text-anchor="start" x="844" y="-443.6" font-family="courier new" font-size="8.00">policy1</text>
<polygon fill="none" stroke="black" points="809.5,-423 809.5,-438 856.5,-438 856.5,-423 809.5,-423"/>
<text text-anchor="start" x="819" y="-428.6" font-family="courier new" font-size="8.00">config</text>
<polygon fill="none" stroke="black" points="856.5,-423 856.5,-438 874.5,-438 874.5,-423 856.5,-423"/>
<text text-anchor="start" x="863" y="-428.6" font-family="courier new" font-size="8.00">+</text>
<polygon fill="none" stroke="black" points="874.5,-423 874.5,-438 910.5,-438 910.5,-423 874.5,-423"/>
<text text-anchor="start" x="881" y="-428.6" font-family="courier new" font-size="8.00">apply</text>
<polygon fill="none" stroke="black" points="809.5,-408 809.5,-423 910.5,-423 910.5,-408 809.5,-408"/>
<text text-anchor="start" x="812.5" y="-413.6" font-family="courier new" font-size="8.00">controls &#160;&#160;&#160;&#160;&#160;&#160;&#160;&#160;&#160;&#160;&#160;&#160;</text>
<polygon fill="none" stroke="black" points="809.5,-393 809.5,-408 910.5,-408 910.5,-393 809.5,-393"/>
<text text-anchor="start" x="814.5" y="-398.6" font-family="courier new" font-size="8.00">N/A &#160;&#160;&#160;&#160;&#160;&#160;&#160;&#160;&#160;&#160;&#160;&#160;&#160;&#160;&#160;&#160;</text>
<polygon fill="none" stroke="black" points="809.5,-378 809.5,-393 910.5,-393 910.5,-378 809.5,-378"/>
<text text-anchor="start" x="814.5" y="-383.6" font-family="courier new" font-size="8.00">00:02:07 &#160;&#160;&#160;&#160;&#160;&#160;&#160;&#160;&#160;&#160;&#160;</text>
</g>
<!-- [root] ibm_iam_user_policy.policy2 -->
<g id="node_10" class="node">
<title>[root] ibm_iam_user_policy.policy2</title>
<polygon fill="none" stroke="black" points="928.5,-453 928.5,-468 1029.5,-468 1029.5,-453 928.5,-453"/>
<text text-anchor="start" x="936" y="-458.6" font-family="courier new" font-size="8.00">ibm_iam_user_policy</text>
<polygon fill="none" stroke="black" points="928.5,-438 928.5,-453 1029.5,-453 1029.5,-438 928.5,-438"/>
<text text-anchor="start" x="963" y="-443.6" font-family="courier new" font-size="8.00">policy2</text>
<polygon fill="none" stroke="black" points="928.5,-423 928.5,-438 975.5,-438 975.5,-423 928.5,-423"/>
<text text-anchor="start" x="938" y="-428.6" font-family="courier new" font-size="8.00">config</text>
<polygon fill="none" stroke="black" points="975.5,-423 975.5,-438 993.5,-438 993.5,-423 975.5,-423"/>
<text text-anchor="start" x="982" y="-428.6" font-family="courier new" font-size="8.00">+</text>
<polygon fill="none" stroke="black" points="993.5,-423 993.5,-438 1029.5,-438 1029.5,-423 993.5,-423"/>
<text text-anchor="start" x="1000" y="-428.6" font-family="courier new" font-size="8.00">apply</text>
<polygon fill="none" stroke="black" points="928.5,-408 928.5,-423 1029.5,-423 1029.5,-408 928.5,-408"/>
<text text-anchor="start" x="931.5" y="-413.6" font-family="courier new" font-size="8.00">controls &#160;&#160;&#160;&#160;&#160;&#160;&#160;&#160;&#160;&#160;&#160;&#160;</text>
<polygon fill="none" stroke="black" points="928.5,-393 928.5,-408 1029.5,-408 1029.5,-393 928.5,-393"/>
<text text-anchor="start" x="933.5" y="-398.6" font-family="courier new" font-size="8.00">N/A &#160;&#160;&#160;&#160;&#160;&#160;&#160;&#160;&#160;&#160;&#160;&#160;&#160;&#160;&#160;&#160;</text>
<polygon fill="none" stroke="black" points="928.5,-378 928.5,-393 1029.5,-393 1029.5,-378 928.5,-378"/>
<text text-anchor="start" x="933.5" y="-383.6" font-family="courier new" font-size="8.00">00:02:07 &#160;&#160;&#160;&#160;&#160;&#160;&#160;&#160;&#160;&#160;&#160;</text>
</g>
<!-- [root] ibm_is_vpc.vpc1 -->
<g id="node_13" class="node">
<title>[root] ibm_is_vpc.vpc1</title>
<polygon fill="none" stroke="black" points="335.5,-75 335.5,-90 436.5,-90 436.5,-75 335.5,-75"/>
<text text-anchor="start" x="363" y="-80.6" font-family="courier new" font-size="8.00">ibm_is_vpc</text>
<polygon fill="none" stroke="black" points="335.5,-60 335.5,-75 436.5,-75 436.5,-60 335.5,-60"/>
<text text-anchor="start" x="376.5" y="-65.6" font-family="courier new" font-size="8.00">vpc1</text>
<polygon fill="none" stroke="black" points="335.5,-45 335.5,-60 382.5,-60 382.5,-45 335.5,-45"/>
<text text-anchor="start" x="345" y="-50.6" font-family="courier new" font-size="8.00">config</text>
<polygon fill="none" stroke="black" points="382.5,-45 382.5,-60 400.5,-60 400.5,-45 382.5,-45"/>
<text text-anchor="start" x="389" y="-50.6" font-family="courier new" font-size="8.00">+</text>
<polygon fill="none" stroke="black" points="400.5,-45 400.5,-60 436.5,-60 436.5,-45 400.5,-45"/>
<text text-anchor="start" x="407" y="-50.6" font-family="courier new" font-size="8.00">apply</text>
<polygon fill="none" stroke="black" points="335.5,-30 335.5,-45 436.5,-45 436.5,-30 335.5,-30"/>
<text text-anchor="start" x="338.5" y="-35.6" font-family="courier new" font-size="8.00">controls &#160;&#160;&#160;&#160;&#160;&#160;&#160;&#160;&#160;&#160;&#160;&#160;</text>
<polygon fill="none" stroke="black" points="335.5,-15 335.5,-30 436.5,-30 436.5,-15 335.5,-15"/>
<text text-anchor="start" x="340.5" y="-20.6" font-family="courier new" font-size="8.00">0 USD &#160;&#160;&#160;&#160;&#160;&#160;&#160;&#160;&#160;&#160;&#160;&#160;&#160;&#160;</text>
<polygon fill="none" stroke="black" points="335.5,0 335.5,-15 436.5,-15 436.5,0 335.5,0"/>
<text text-anchor="start" x="340.5" y="-5.6" font-family="courier new" font-size="8.00">00:00:18 &#160;&#160;&#160;&#160;&#160;&#160;&#160;&#160;&#160;&#160;&#160;</text>
</g>
<!-- [root] ibm_is_subnet.subnet1&#45;&gt;[root] ibm_is_vpc.vpc1 -->
<g id="edge_10" class="edge">
<title>[root] ibm_is_subnet.subnet1&#45;&gt;[root] ibm_is_vpc.vpc1</title>
<path fill="none" stroke="black" d="M278.36,-130.08C293.73,-118.03 310.72,-104.69 326.57,-92.25"/>
<polygon fill="black" stroke="black" points="329.03,-94.77 334.73,-85.84 324.71,-89.26 329.03,-94.77"/>
</g>
<!-- [root] ibm_is_subnet.subnet2 -->
<g id="node_12" class="node">
<title>[root] ibm_is_subnet.subnet2</title>
<polygon fill="none" stroke="black" points="454.5,-201 454.5,-216 555.5,-216 555.5,-201 454.5,-201"/>
<text text-anchor="start" x="475.5" y="-206.6" font-family="courier new" font-size="8.00">ibm_is_subnet</text>
<polygon fill="none" stroke="black" points="454.5,-186 454.5,-201 555.5,-201 555.5,-186 454.5,-186"/>
<text text-anchor="start" x="489" y="-191.6" font-family="courier new" font-size="8.00">subnet2</text>
<polygon fill="none" stroke="black" points="454.5,-171 454.5,-186 501.5,-186 501.5,-171 454.5,-171"/>
<text text-anchor="start" x="464" y="-176.6" font-family="courier new" font-size="8.00">config</text>
<polygon fill="none" stroke="black" points="501.5,-171 501.5,-186 519.5,-186 519.5,-171 501.5,-171"/>
<text text-anchor="start" x="508" y="-176.6" font-family="courier new" font-size="8.00">+</text>
<polygon fill="none" stroke="black" points="519.5,-171 519.5,-186 555.5,-186 555.5,-171 519.5,-171"/>
<text text-anchor="start" x="526" y="-176.6" font-family="courier new" font-size="8.00">apply</text>
<polygon fill="none" stroke="black" points="454.5,-156 454.5,-171 555.5,-171 555.5,-156 454.5,-156"/>
<text text-anchor="start" x="457.5" y="-161.6" font-family="courier new" font-size="8.00">controls &#160;&#160;&#160;&#160;&#160;&#160;&#160;&#160;&#160;&#160;&#160;&#160;</text>
<polygon fill="none" stroke="black" points="454.5,-141 454.5,-156 555.5,-156 555.5,-141 454.5,-141"/>
<text text-anchor="start" x="459.5" y="-146.6" font-family="courier new" font-size="8.00">0 USD &#160;&#160;&#160;&#160;&#160;&#160;&#160;&#160;&#160;&#160;&#160;&#160;&#160;&#160;</text>
<polygon fill="none" stroke="black" points="454.5,-126 454.5,-141 555.5,-141 555.5,-126 454.5,-126"/>
<text text-anchor="start" x="459.5" y="-131.6" font-family="courier new" font-size="8.00">00:00:12 &#160;&#160;&#160;&#160;&#160;&#160;&#160;&#160;&#160;&#160;&#160;</text>
</g>
<!-- [root] ibm_is_subnet.subnet2&#45;&gt;[root] ibm_is_vpc.vpc1 -->
<g id="edge_11" class="edge">
<title>[root] ibm_is_subnet.subnet2&#45;&gt;[root] ibm_is_vpc.vpc1</title>
<path fill="none" stroke="black" d="M462.21,-125.93C453.46,-116.82 444.17,-107.13 435.18,-97.77"/>
<polygon fill="black" stroke="black" points="437.5,-95.13 428.05,-90.34 432.45,-99.98 437.5,-95.13"/>
</g>
<!-- [root] ibm_resource_instance.kp_instance -->
<g id="node_17" class="node">
<title>[root] ibm_resource_instance.kp_instance</title>
<polygon fill="none" stroke="black" points="335.5,-201 335.5,-216 436.5,-216 436.5,-201 335.5,-201"/>
<text text-anchor="start" x="338.5" y="-206.6" font-family="courier new" font-size="8.00">ibm_resource_instance</text>
<polygon fill="none" stroke="black" points="335.5,-186 335.5,-201 436.5,-201 436.5,-186 335.5,-186"/>
<text text-anchor="start" x="361" y="-191.6" font-family="courier new" font-size="8.00">kp_instance</text>
<polygon fill="none" stroke="black" points="335.5,-171 335.5,-186 382.5,-186 382.5,-171 335.5,-171"/>
<text text-anchor="start" x="345" y="-176.6" font-family="courier new" font-size="8.00">config</text>
<polygon fill="none" stroke="black" points="382.5,-171 382.5,-186 400.5,-186 400.5,-171 382.5,-171"/>
<text text-anchor="start" x="389" y="-176.6" font-family="courier new" font-size="8.00">+</text>
<polygon fill="none" stroke="black" points="400.5,-171 400.5,-186 436.5,-186 436.5,-171 400.5,-171"/>
<text text-anchor="start" x="407" y="-176.6" font-family="courier new" font-size="8.00">apply</text>
<polygon fill="none" stroke="black" points="335.5,-156 335.5,-171 436.5,-171 436.5,-156 335.5,-156"/>
<text text-anchor="start" x="338.5" y="-161.6" font-family="courier new" font-size="8.00">controls &#160;&#160;&#160;&#160;&#160;&#160;&#160;&#160;&#160;&#160;&#160;&#160;</text>
<polygon fill="none" stroke="black" points="335.5,-141 335.5,-156 436.5,-156 436.5,-141 335.5,-141"/>
<text text-anchor="start" x="340.5" y="-146.6" font-family="courier new" font-size="8.00">N/A &#160;&#160;&#160;&#160;&#160;&#160;&#160;&#160;&#160;&#160;&#160;&#160;&#160;&#160;&#160;&#160;</text>
<polygon fill="none" stroke="black" points="335.5,-126 335.5,-141 436.5,-141 436.5,-126 335.5,-126"/>
<text text-anchor="start" x="340.5" y="-131.6" font-family="courier new" font-size="8.00">00:01:00 &#160;&#160;&#160;&#160;&#160;&#160;&#160;&#160;&#160;&#160;&#160;</text>
</g>
<!-- [root] ibm_kp_key.cos_encrypt&#45;&gt;[root] ibm_resource_instance.kp_instance -->
<g id="edge_12" class="edge">
<title>[root] ibm_kp_key.cos_encrypt&#45;&gt;[root] ibm_resource_instance.kp_instance</title>
<path fill="none" stroke="black" d="M411.28,-251.93C408.58,-243.54 405.71,-234.66 402.92,-226"/>
<polygon fill="black" stroke="black" points="406.21,-224.79 399.8,-216.34 399.54,-226.93 406.21,-224.79"/>
</g>
<!-- [root] ibm_resource_instance.cos_instance&#45;&gt;[root] ibm_resource_group.demo_group1 -->
<g id="edge_13" class="edge">
<title>[root] ibm_resource_instance.cos_instance&#45;&gt;[root] ibm_resource_group.demo_group1</title>
<path fill="none" stroke="black" d="M311.64,-251.86C313.64,-215.22 310.98,-163.26 286.5,-126 268.26,-98.24 236.82,-78.93 208.55,-66.25"/>
<polygon fill="black" stroke="black" points="209.68,-62.92 199.11,-62.2 206.92,-69.36 209.68,-62.92"/>
</g>
<!-- [root] root -->
<g id="node_18" class="node">
<title>[root] root</title>
<polygon fill="none" stroke="black" points="523.5,-533.5 523.5,-548.5 579.5,-548.5 579.5,-533.5 523.5,-533.5"/>
<text text-anchor="start" x="526.5" y="-539.1" font-family="courier new" font-size="8.00">[root] root</text>
<polygon fill="none" stroke="black" points="523.5,-518.5 523.5,-533.5 579.5,-533.5 579.5,-518.5 523.5,-518.5"/>
<text text-anchor="start" x="531" y="-524.1" font-family="courier new" font-size="8.00">269.1 USD</text>
<polygon fill="none" stroke="black" points="523.5,-503.5 523.5,-518.5 579.5,-518.5 579.5,-503.5 523.5,-503.5"/>
<text text-anchor="start" x="533" y="-509.1" font-family="courier new" font-size="8.00">13:05:30</text>
</g>
<!-- [root] root&#45;&gt;[root] ibm_cis_domain_settings.demo_web_domain -->
<g id="edge_14" class="edge">
<title>[root] root&#45;&gt;[root] ibm_cis_domain_settings.demo_web_domain</title>
<path fill="none" stroke="black" d="M523.48,-522.35C466.34,-515.54 332.57,-497.63 223.5,-468 205.88,-463.21 187.19,-456.86 170.01,-450.48"/>
<polygon fill="black" stroke="black" points="171.23,-447.2 160.64,-446.95 168.76,-453.75 171.23,-447.2"/>
</g>
<!-- [root] root&#45;&gt;[root] ibm_container_bind_service.bind_service -->
<g id="edge_15" class="edge">
<title>[root] root&#45;&gt;[root] ibm_container_bind_service.bind_service</title>
<path fill="none" stroke="black" d="M523.27,-519.16C487.91,-510.71 425.64,-494.16 365.91,-467.89"/>
<polygon fill="black" stroke="black" points="367.3,-464.67 356.74,-463.77 364.43,-471.06 367.3,-464.67"/>
</g>
<!-- [root] root&#45;&gt;[root] ibm_cos_bucket.standard&#45;ams03 -->
<g id="edge_16" class="edge">
<title>[root] root&#45;&gt;[root] ibm_cos_bucket.standard&#45;ams03</title>
<path fill="none" stroke="black" d="M524.78,-503.97C512.83,-494.35 498.25,-482.6 483.97,-471.1"/>
<polygon fill="black" stroke="black" points="486.07,-468.3 476.09,-464.75 481.68,-473.75 486.07,-468.3"/>
</g>
<!-- [root] root&#45;&gt;[root] ibm_iam_authorization_policy.policy -->
<g id="edge_17" class="edge">
<title>[root] root&#45;&gt;[root] ibm_iam_authorization_policy.policy</title>
<path fill="none" stroke="black" d="M561.68,-503.97C565.43,-496.04 569.87,-486.65 574.36,-477.15"/>
<polygon fill="black" stroke="black" points="577.55,-478.59 578.66,-468.06 571.23,-475.6 577.55,-478.59"/>
</g>
<!-- [root] root&#45;&gt;[root] ibm_iam_service_policy.policy -->
<g id="edge_18" class="edge">
<title>[root] root&#45;&gt;[root] ibm_iam_service_policy.policy</title>
<path fill="none" stroke="black" d="M579.81,-514.12C605.44,-503.42 643.89,-486.34 675.5,-468 675.59,-467.95 675.69,-467.89 675.78,-467.84"/>
<polygon fill="black" stroke="black" points="677.74,-470.74 684.48,-462.56 674.11,-464.76 677.74,-470.74"/>
</g>
<!-- [root] root&#45;&gt;[root] ibm_iam_user_policy.policy1 -->
<g id="edge_19" class="edge">
<title>[root] root&#45;&gt;[root] ibm_iam_user_policy.policy1</title>
<path fill="none" stroke="black" d="M579.85,-522.69C627.2,-517.19 724.59,-502.38 799.5,-468 799.6,-467.95 799.7,-467.91 799.8,-467.86"/>
<polygon fill="black" stroke="black" points="801.68,-470.83 808.97,-463.14 798.48,-464.61 801.68,-470.83"/>
</g>
<!-- [root] root&#45;&gt;[root] ibm_iam_user_policy.policy2 -->
<g id="edge_20" class="edge">
<title>[root] root&#45;&gt;[root] ibm_iam_user_policy.policy2</title>
<path fill="none" stroke="black" d="M579.51,-525.64C641.19,-525.03 792.64,-518.44 918.52,-467.87"/>
<polygon fill="black" stroke="black" points="920.02,-471.04 927.92,-463.98 917.35,-464.56 920.02,-471.04"/>
</g>
<!-- [root] root&#45;&gt;[root] ibm_is_subnet.subnet2 -->
<g id="edge_21" class="edge">
<title>[root] root&#45;&gt;[root] ibm_is_subnet.subnet2</title>
<path fill="none" stroke="black" d="M538.98,-503.83C533.55,-493.35 527.71,-480.38 524.5,-468 503.18,-385.63 501.05,-286.31 502.22,-226.22"/>
<polygon fill="black" stroke="black" points="505.72,-226.27 502.45,-216.19 498.72,-226.11 505.72,-226.27"/>
</g>
</g>
</svg>
