<?xml version="1.0" encoding="UTF-8" standalone="no"?>
<!DOCTYPE svg PUBLIC "-//W3C//DTD SVG 1.1//EN"
 "http://www.w3.org/Graphics/SVG/1.1/DTD/svg11.dtd">
<!-- Generated by graphviz version 2.44.1 (20200629.0846)
 -->
<!-- Pages: 1 -->
<svg width="206pt" height="748pt"
 viewBox="0.00 0.00 206.00 748.00" xmlns="http://www.w3.org/2000/svg" xmlns:xlink="http://www.w3.org/1999/xlink">
<g id="graph0" class="graph" transform="scale(1 1) rotate(0) translate(4 744)">
<polygon fill="white" stroke="transparent" points="-4,4 -4,-744 202,-744 202,4 -4,4"/>
<!-- [root] ibm_cis.web_domain -->
<g id="node_0" class="node">
<title>[root] ibm_cis.web_domain</title>
<polygon fill="none" stroke="black" points="0,-296 0,-316 20,-316 20,-296 0,-296"/>
<image xlink:href="static/images/resource.png" width="14px" height="14px" preserveAspectRatio="xMinYMin meet" x="3" y="-313"/>
<polygon fill="none" stroke="black" points="20,-296 20,-316 148,-316 148,-296 20,-296"/>
<text text-anchor="start" x="38.5" y="-304.1" font-family="courier new" font-size="8.00">ibm_cis &#160;&#160;&#160;&#160;&#160;&#160;&#160;&#160;&#160;&#160;&#160;&#160;</text>
<polygon fill="none" stroke="black" points="148,-296 148,-316 198,-316 198,-296 148,-296"/>
<polygon fill="none" stroke="black" points="0,-276 0,-296 20,-296 20,-276 0,-276"/>
<image xlink:href="static/images/instance.png" width="14px" height="14px" preserveAspectRatio="xMinYMin meet" x="3" y="-293"/>
<polygon fill="none" stroke="black" points="20,-276 20,-296 148,-296 148,-276 20,-276"/>
<text text-anchor="start" x="38.5" y="-284.1" font-family="courier new" font-size="8.00">web_domain &#160;&#160;&#160;&#160;&#160;&#160;&#160;&#160;&#160;</text>
<polygon fill="none" stroke="black" points="148,-276 148,-296 198,-296 198,-276 148,-276"/>
<polygon fill="none" stroke="black" points="0,-256 0,-276 20,-276 20,-256 0,-256"/>
<image xlink:href="static/images/plan.png" width="14px" height="14px" preserveAspectRatio="xMinYMin meet" x="3" y="-273"/>
<polygon fill="none" stroke="black" points="20,-256 20,-276 148,-276 148,-256 20,-256"/>
<text text-anchor="start" x="25" y="-264.1" font-family="courier new" font-size="8.00">&gt;_terraform plan &#160;&#160;&#160;&#160;&#160;&#160;&#160;&#160;&#160;</text>
<polygon fill="none" stroke="black" points="148,-256 148,-276 198,-276 198,-256 148,-256"/>
<image xlink:href="static/images/correct.png" width="32px" height="14px" preserveAspectRatio="xMinYMin meet" x="157" y="-273"/>
<polygon fill="none" stroke="black" points="0,-236 0,-256 20,-256 20,-236 0,-236"/>
<image xlink:href="static/images/policy.png" width="14px" height="14px" preserveAspectRatio="xMinYMin meet" x="3" y="-253"/>
<polygon fill="none" stroke="black" points="20,-236 20,-256 148,-256 148,-236 20,-236"/>
<text text-anchor="start" x="23" y="-244.1" font-family="courier new" font-size="8.00">&gt;_controls verify &#160;&#160;&#160;&#160;&#160;&#160;&#160;&#160;&#160;</text>
<polygon fill="none" stroke="black" points="148,-236 148,-256 198,-256 198,-236 148,-236"/>
<image xlink:href="static/images/hourglass.png" width="32px" height="14px" preserveAspectRatio="xMinYMin meet" x="157" y="-253"/>
<polygon fill="none" stroke="black" points="0,-216 0,-236 20,-236 20,-216 0,-216"/>
<image xlink:href="static/images/cost.png" width="14px" height="14px" preserveAspectRatio="xMinYMin meet" x="3" y="-233"/>
<polygon fill="none" stroke="black" points="20,-216 20,-236 148,-236 148,-216 20,-216"/>
<text text-anchor="start" x="25" y="-224.1" font-family="courier new" font-size="8.00">&gt;_estimate cost &#160;&#160;&#160;&#160;&#160;&#160;&#160;&#160;&#160;&#160;</text>
<polygon fill="none" stroke="black" points="148,-216 148,-236 198,-236 198,-216 148,-216"/>
<text text-anchor="start" x="150" y="-224.1" font-family="courier new" font-size="8.00">N/A &#160;&#160;&#160;&#160;&#160;&#160;</text>
<polygon fill="none" stroke="black" points="0,-196 0,-216 20,-216 20,-196 0,-196"/>
<image xlink:href="static/images/time.png" width="14px" height="14px" preserveAspectRatio="xMinYMin meet" x="3" y="-213"/>
<polygon fill="none" stroke="black" points="20,-196 20,-216 148,-216 148,-196 20,-196"/>
<text text-anchor="start" x="25" y="-204.1" font-family="courier new" font-size="8.00">&gt;_estimate time &#160;&#160;&#160;&#160;&#160;&#160;&#160;&#160;&#160;&#160;</text>
<polygon fill="none" stroke="black" points="148,-196 148,-216 198,-216 198,-196 148,-196"/>
<image xlink:href="static/images/hourglass.png" width="32px" height="14px" preserveAspectRatio="xMinYMin meet" x="157" y="-213"/>
<polygon fill="none" stroke="black" points="0,-176 0,-196 20,-196 20,-176 0,-176"/>
<image xlink:href="static/images/apply.png" width="14px" height="14px" preserveAspectRatio="xMinYMin meet" x="3" y="-193"/>
<polygon fill="none" stroke="black" points="20,-176 20,-196 148,-196 148,-176 20,-176"/>
<text text-anchor="start" x="25" y="-184.1" font-family="courier new" font-size="8.00">&gt;_terraform apply &#160;&#160;&#160;&#160;&#160;&#160;&#160;&#160;</text>
<polygon fill="none" stroke="black" points="148,-176 148,-196 198,-196 198,-176 148,-176"/>
<image xlink:href="static/images/hourglass.png" width="32px" height="14px" preserveAspectRatio="xMinYMin meet" x="157" y="-193"/>
</g>
<!-- [root] ibm_resource_group.web_group -->
<g id="node_3" class="node">
<title>[root] ibm_resource_group.web_group</title>
<polygon fill="none" stroke="black" points="0,-120 0,-140 20,-140 20,-120 0,-120"/>
<image xlink:href="static/images/resource.png" width="14px" height="14px" preserveAspectRatio="xMinYMin meet" x="3" y="-137"/>
<polygon fill="none" stroke="black" points="20,-120 20,-140 148,-140 148,-120 20,-120"/>
<text text-anchor="start" x="38.5" y="-128.1" font-family="courier new" font-size="8.00">ibm_resource_group &#160;</text>
<polygon fill="none" stroke="black" points="148,-120 148,-140 198,-140 198,-120 148,-120"/>
<polygon fill="none" stroke="black" points="0,-100 0,-120 20,-120 20,-100 0,-100"/>
<image xlink:href="static/images/instance.png" width="14px" height="14px" preserveAspectRatio="xMinYMin meet" x="3" y="-117"/>
<polygon fill="none" stroke="black" points="20,-100 20,-120 148,-120 148,-100 20,-100"/>
<text text-anchor="start" x="38.5" y="-108.1" font-family="courier new" font-size="8.00">web_group &#160;&#160;&#160;&#160;&#160;&#160;&#160;&#160;&#160;&#160;</text>
<polygon fill="none" stroke="black" points="148,-100 148,-120 198,-120 198,-100 148,-100"/>
<polygon fill="none" stroke="black" points="0,-80 0,-100 20,-100 20,-80 0,-80"/>
<image xlink:href="static/images/plan.png" width="14px" height="14px" preserveAspectRatio="xMinYMin meet" x="3" y="-97"/>
<polygon fill="none" stroke="black" points="20,-80 20,-100 148,-100 148,-80 20,-80"/>
<text text-anchor="start" x="25" y="-88.1" font-family="courier new" font-size="8.00">&gt;_terraform plan &#160;&#160;&#160;&#160;&#160;&#160;&#160;&#160;&#160;</text>
<polygon fill="none" stroke="black" points="148,-80 148,-100 198,-100 198,-80 148,-80"/>
<image xlink:href="static/images/correct.png" width="32px" height="14px" preserveAspectRatio="xMinYMin meet" x="157" y="-97"/>
<polygon fill="none" stroke="black" points="0,-60 0,-80 20,-80 20,-60 0,-60"/>
<image xlink:href="static/images/policy.png" width="14px" height="14px" preserveAspectRatio="xMinYMin meet" x="3" y="-77"/>
<polygon fill="none" stroke="black" points="20,-60 20,-80 148,-80 148,-60 20,-60"/>
<text text-anchor="start" x="23" y="-68.1" font-family="courier new" font-size="8.00">&gt;_controls verify &#160;&#160;&#160;&#160;&#160;&#160;&#160;&#160;&#160;</text>
<polygon fill="none" stroke="black" points="148,-60 148,-80 198,-80 198,-60 148,-60"/>
<image xlink:href="static/images/hourglass.png" width="32px" height="14px" preserveAspectRatio="xMinYMin meet" x="157" y="-77"/>
<polygon fill="none" stroke="black" points="0,-40 0,-60 20,-60 20,-40 0,-40"/>
<image xlink:href="static/images/cost.png" width="14px" height="14px" preserveAspectRatio="xMinYMin meet" x="3" y="-57"/>
<polygon fill="none" stroke="black" points="20,-40 20,-60 148,-60 148,-40 20,-40"/>
<text text-anchor="start" x="25" y="-48.1" font-family="courier new" font-size="8.00">&gt;_estimate cost &#160;&#160;&#160;&#160;&#160;&#160;&#160;&#160;&#160;&#160;</text>
<polygon fill="none" stroke="black" points="148,-40 148,-60 198,-60 198,-40 148,-40"/>
<text text-anchor="start" x="150" y="-48.1" font-family="courier new" font-size="8.00">N/A &#160;&#160;&#160;&#160;&#160;&#160;</text>
<polygon fill="none" stroke="black" points="0,-20 0,-40 20,-40 20,-20 0,-20"/>
<image xlink:href="static/images/time.png" width="14px" height="14px" preserveAspectRatio="xMinYMin meet" x="3" y="-37"/>
<polygon fill="none" stroke="black" points="20,-20 20,-40 148,-40 148,-20 20,-20"/>
<text text-anchor="start" x="25" y="-28.1" font-family="courier new" font-size="8.00">&gt;_estimate time &#160;&#160;&#160;&#160;&#160;&#160;&#160;&#160;&#160;&#160;</text>
<polygon fill="none" stroke="black" points="148,-20 148,-40 198,-40 198,-20 148,-20"/>
<image xlink:href="static/images/hourglass.png" width="32px" height="14px" preserveAspectRatio="xMinYMin meet" x="157" y="-37"/>
<polygon fill="none" stroke="black" points="0,0 0,-20 20,-20 20,0 0,0"/>
<image xlink:href="static/images/apply.png" width="14px" height="14px" preserveAspectRatio="xMinYMin meet" x="3" y="-17"/>
<polygon fill="none" stroke="black" points="20,0 20,-20 148,-20 148,0 20,0"/>
<text text-anchor="start" x="25" y="-8.1" font-family="courier new" font-size="8.00">&gt;_terraform apply &#160;&#160;&#160;&#160;&#160;&#160;&#160;&#160;</text>
<polygon fill="none" stroke="black" points="148,0 148,-20 198,-20 198,0 148,0"/>
<image xlink:href="static/images/hourglass.png" width="32px" height="14px" preserveAspectRatio="xMinYMin meet" x="157" y="-17"/>
</g>
<!-- [root] ibm_cis.web_domain&#45;&gt;[root] ibm_resource_group.web_group -->
<g id="edge_0" class="edge">
<title>[root] ibm_cis.web_domain&#45;&gt;[root] ibm_resource_group.web_group</title>
<path fill="none" stroke="black" d="M99,-175.98C99,-167.52 99,-158.83 99,-150.24"/>
<polygon fill="black" stroke="black" points="102.5,-150.22 99,-140.22 95.5,-150.22 102.5,-150.22"/>
</g>
<!-- [root] ibm_cis_domain.web_domain -->
<g id="node_1" class="node">
<title>[root] ibm_cis_domain.web_domain</title>
<polygon fill="none" stroke="black" points="0,-472 0,-492 20,-492 20,-472 0,-472"/>
<image xlink:href="static/images/resource.png" width="14px" height="14px" preserveAspectRatio="xMinYMin meet" x="3" y="-489"/>
<polygon fill="none" stroke="black" points="20,-472 20,-492 148,-492 148,-472 20,-472"/>
<text text-anchor="start" x="38.5" y="-480.1" font-family="courier new" font-size="8.00">ibm_cis_domain &#160;&#160;&#160;&#160;&#160;</text>
<polygon fill="none" stroke="black" points="148,-472 148,-492 198,-492 198,-472 148,-472"/>
<polygon fill="none" stroke="black" points="0,-452 0,-472 20,-472 20,-452 0,-452"/>
<image xlink:href="static/images/instance.png" width="14px" height="14px" preserveAspectRatio="xMinYMin meet" x="3" y="-469"/>
<polygon fill="none" stroke="black" points="20,-452 20,-472 148,-472 148,-452 20,-452"/>
<text text-anchor="start" x="38.5" y="-460.1" font-family="courier new" font-size="8.00">web_domain &#160;&#160;&#160;&#160;&#160;&#160;&#160;&#160;&#160;</text>
<polygon fill="none" stroke="black" points="148,-452 148,-472 198,-472 198,-452 148,-452"/>
<polygon fill="none" stroke="black" points="0,-432 0,-452 20,-452 20,-432 0,-432"/>
<image xlink:href="static/images/plan.png" width="14px" height="14px" preserveAspectRatio="xMinYMin meet" x="3" y="-449"/>
<polygon fill="none" stroke="black" points="20,-432 20,-452 148,-452 148,-432 20,-432"/>
<text text-anchor="start" x="25" y="-440.1" font-family="courier new" font-size="8.00">&gt;_terraform plan &#160;&#160;&#160;&#160;&#160;&#160;&#160;&#160;&#160;</text>
<polygon fill="none" stroke="black" points="148,-432 148,-452 198,-452 198,-432 148,-432"/>
<image xlink:href="static/images/correct.png" width="32px" height="14px" preserveAspectRatio="xMinYMin meet" x="157" y="-449"/>
<polygon fill="none" stroke="black" points="0,-412 0,-432 20,-432 20,-412 0,-412"/>
<image xlink:href="static/images/policy.png" width="14px" height="14px" preserveAspectRatio="xMinYMin meet" x="3" y="-429"/>
<polygon fill="none" stroke="black" points="20,-412 20,-432 148,-432 148,-412 20,-412"/>
<text text-anchor="start" x="23" y="-420.1" font-family="courier new" font-size="8.00">&gt;_controls verify &#160;&#160;&#160;&#160;&#160;&#160;&#160;&#160;&#160;</text>
<polygon fill="none" stroke="black" points="148,-412 148,-432 198,-432 198,-412 148,-412"/>
<image xlink:href="static/images/hourglass.png" width="32px" height="14px" preserveAspectRatio="xMinYMin meet" x="157" y="-429"/>
<polygon fill="none" stroke="black" points="0,-392 0,-412 20,-412 20,-392 0,-392"/>
<image xlink:href="static/images/cost.png" width="14px" height="14px" preserveAspectRatio="xMinYMin meet" x="3" y="-409"/>
<polygon fill="none" stroke="black" points="20,-392 20,-412 148,-412 148,-392 20,-392"/>
<text text-anchor="start" x="25" y="-400.1" font-family="courier new" font-size="8.00">&gt;_estimate cost &#160;&#160;&#160;&#160;&#160;&#160;&#160;&#160;&#160;&#160;</text>
<polygon fill="none" stroke="black" points="148,-392 148,-412 198,-412 198,-392 148,-392"/>
<text text-anchor="start" x="150" y="-400.1" font-family="courier new" font-size="8.00">N/A &#160;&#160;&#160;&#160;&#160;&#160;</text>
<polygon fill="none" stroke="black" points="0,-372 0,-392 20,-392 20,-372 0,-372"/>
<image xlink:href="static/images/time.png" width="14px" height="14px" preserveAspectRatio="xMinYMin meet" x="3" y="-389"/>
<polygon fill="none" stroke="black" points="20,-372 20,-392 148,-392 148,-372 20,-372"/>
<text text-anchor="start" x="25" y="-380.1" font-family="courier new" font-size="8.00">&gt;_estimate time &#160;&#160;&#160;&#160;&#160;&#160;&#160;&#160;&#160;&#160;</text>
<polygon fill="none" stroke="black" points="148,-372 148,-392 198,-392 198,-372 148,-372"/>
<image xlink:href="static/images/hourglass.png" width="32px" height="14px" preserveAspectRatio="xMinYMin meet" x="157" y="-389"/>
<polygon fill="none" stroke="black" points="0,-352 0,-372 20,-372 20,-352 0,-352"/>
<image xlink:href="static/images/apply.png" width="14px" height="14px" preserveAspectRatio="xMinYMin meet" x="3" y="-369"/>
<polygon fill="none" stroke="black" points="20,-352 20,-372 148,-372 148,-352 20,-352"/>
<text text-anchor="start" x="25" y="-360.1" font-family="courier new" font-size="8.00">&gt;_terraform apply &#160;&#160;&#160;&#160;&#160;&#160;&#160;&#160;</text>
<polygon fill="none" stroke="black" points="148,-352 148,-372 198,-372 198,-352 148,-352"/>
<image xlink:href="static/images/hourglass.png" width="32px" height="14px" preserveAspectRatio="xMinYMin meet" x="157" y="-369"/>
</g>
<!-- [root] ibm_cis_domain.web_domain&#45;&gt;[root] ibm_cis.web_domain -->
<g id="edge_1" class="edge">
<title>[root] ibm_cis_domain.web_domain&#45;&gt;[root] ibm_cis.web_domain</title>
<path fill="none" stroke="black" d="M99,-351.98C99,-343.52 99,-334.83 99,-326.24"/>
<polygon fill="black" stroke="black" points="102.5,-326.22 99,-316.22 95.5,-326.22 102.5,-326.22"/>
</g>
<!-- [root] ibm_cis_domain_settings.web_domain -->
<g id="node_2" class="node">
<title>[root] ibm_cis_domain_settings.web_domain</title>
<polygon fill="none" stroke="black" points="0,-648 0,-668 20,-668 20,-648 0,-648"/>
<image xlink:href="static/images/resource.png" width="14px" height="14px" preserveAspectRatio="xMinYMin meet" x="3" y="-665"/>
<polygon fill="none" stroke="black" points="20,-648 20,-668 148,-668 148,-648 20,-648"/>
<text text-anchor="start" x="32" y="-656.1" font-family="courier new" font-size="8.00">ibm_cis_domain_settings</text>
<polygon fill="none" stroke="black" points="148,-648 148,-668 198,-668 198,-648 148,-648"/>
<polygon fill="none" stroke="black" points="0,-628 0,-648 20,-648 20,-628 0,-628"/>
<image xlink:href="static/images/instance.png" width="14px" height="14px" preserveAspectRatio="xMinYMin meet" x="3" y="-645"/>
<polygon fill="none" stroke="black" points="20,-628 20,-648 148,-648 148,-628 20,-628"/>
<text text-anchor="start" x="38.5" y="-636.1" font-family="courier new" font-size="8.00">web_domain &#160;&#160;&#160;&#160;&#160;&#160;&#160;&#160;&#160;</text>
<polygon fill="none" stroke="black" points="148,-628 148,-648 198,-648 198,-628 148,-628"/>
<polygon fill="none" stroke="black" points="0,-608 0,-628 20,-628 20,-608 0,-608"/>
<image xlink:href="static/images/plan.png" width="14px" height="14px" preserveAspectRatio="xMinYMin meet" x="3" y="-625"/>
<polygon fill="none" stroke="black" points="20,-608 20,-628 148,-628 148,-608 20,-608"/>
<text text-anchor="start" x="25" y="-616.1" font-family="courier new" font-size="8.00">&gt;_terraform plan &#160;&#160;&#160;&#160;&#160;&#160;&#160;&#160;&#160;</text>
<polygon fill="none" stroke="black" points="148,-608 148,-628 198,-628 198,-608 148,-608"/>
<image xlink:href="static/images/correct.png" width="32px" height="14px" preserveAspectRatio="xMinYMin meet" x="157" y="-625"/>
<polygon fill="none" stroke="black" points="0,-588 0,-608 20,-608 20,-588 0,-588"/>
<image xlink:href="static/images/policy.png" width="14px" height="14px" preserveAspectRatio="xMinYMin meet" x="3" y="-605"/>
<polygon fill="none" stroke="black" points="20,-588 20,-608 148,-608 148,-588 20,-588"/>
<text text-anchor="start" x="23" y="-596.1" font-family="courier new" font-size="8.00">&gt;_controls verify &#160;&#160;&#160;&#160;&#160;&#160;&#160;&#160;&#160;</text>
<polygon fill="none" stroke="black" points="148,-588 148,-608 198,-608 198,-588 148,-588"/>
<polygon fill="none" stroke="black" points="0,-568 0,-588 20,-588 20,-568 0,-568"/>
<image xlink:href="static/images/cost.png" width="14px" height="14px" preserveAspectRatio="xMinYMin meet" x="3" y="-585"/>
<polygon fill="none" stroke="black" points="20,-568 20,-588 148,-588 148,-568 20,-568"/>
<text text-anchor="start" x="25" y="-576.1" font-family="courier new" font-size="8.00">&gt;_estimate cost &#160;&#160;&#160;&#160;&#160;&#160;&#160;&#160;&#160;&#160;</text>
<polygon fill="none" stroke="black" points="148,-568 148,-588 198,-588 198,-568 148,-568"/>
<text text-anchor="start" x="150" y="-576.1" font-family="courier new" font-size="8.00">N/A &#160;&#160;&#160;&#160;&#160;&#160;</text>
<polygon fill="none" stroke="black" points="0,-548 0,-568 20,-568 20,-548 0,-548"/>
<image xlink:href="static/images/time.png" width="14px" height="14px" preserveAspectRatio="xMinYMin meet" x="3" y="-565"/>
<polygon fill="none" stroke="black" points="20,-548 20,-568 148,-568 148,-548 20,-548"/>
<text text-anchor="start" x="25" y="-556.1" font-family="courier new" font-size="8.00">&gt;_estimate time &#160;&#160;&#160;&#160;&#160;&#160;&#160;&#160;&#160;&#160;</text>
<polygon fill="none" stroke="black" points="148,-548 148,-568 198,-568 198,-548 148,-548"/>
<image xlink:href="static/images/hourglass.png" width="32px" height="14px" preserveAspectRatio="xMinYMin meet" x="157" y="-565"/>
<polygon fill="none" stroke="black" points="0,-528 0,-548 20,-548 20,-528 0,-528"/>
<image xlink:href="static/images/apply.png" width="14px" height="14px" preserveAspectRatio="xMinYMin meet" x="3" y="-545"/>
<polygon fill="none" stroke="black" points="20,-528 20,-548 148,-548 148,-528 20,-528"/>
<text text-anchor="start" x="25" y="-536.1" font-family="courier new" font-size="8.00">&gt;_terraform apply &#160;&#160;&#160;&#160;&#160;&#160;&#160;&#160;</text>
<polygon fill="none" stroke="black" points="148,-528 148,-548 198,-548 198,-528 148,-528"/>
<image xlink:href="static/images/hourglass.png" width="32px" height="14px" preserveAspectRatio="xMinYMin meet" x="157" y="-545"/>
</g>
<!-- [root] ibm_cis_domain_settings.web_domain&#45;&gt;[root] ibm_cis_domain.web_domain -->
<g id="edge_2" class="edge">
<title>[root] ibm_cis_domain_settings.web_domain&#45;&gt;[root] ibm_cis_domain.web_domain</title>
<path fill="none" stroke="black" d="M99,-527.98C99,-519.52 99,-510.83 99,-502.24"/>
<polygon fill="black" stroke="black" points="102.5,-502.22 99,-492.22 95.5,-502.22 102.5,-502.22"/>
</g>
<!-- [root] root -->
<g id="node_4" class="node">
<title>[root] root</title>
<polygon fill="none" stroke="black" points="132,-740 66,-740 66,-704 132,-704 132,-740"/>
<text text-anchor="middle" x="99" y="-720.1" font-family="courier new" font-size="8.00">[root] root</text>
</g>
<!-- [root] root&#45;&gt;[root] ibm_cis_domain_settings.web_domain -->
<g id="edge_3" class="edge">
<title>[root] root&#45;&gt;[root] ibm_cis_domain_settings.web_domain</title>
<path fill="none" stroke="black" d="M99,-703.78C99,-696.61 99,-687.74 99,-678.22"/>
<polygon fill="black" stroke="black" points="102.5,-678.11 99,-668.11 95.5,-678.11 102.5,-678.11"/>
</g>
</g>
</svg>
